<?xml version="1.0" encoding="utf-8"?>
<!-- Generator: Adobe Illustrator 16.0.3, SVG Export Plug-In . SVG Version: 6.00 Build 0)  -->
<!DOCTYPE svg PUBLIC "-//W3C//DTD SVG 1.1//EN" "http://www.w3.org/Graphics/SVG/1.1/DTD/svg11.dtd">
<svg version="1.1" id="Layer_1" xmlns="http://www.w3.org/2000/svg" xmlns:xlink="http://www.w3.org/1999/xlink" x="0px" y="0px"
	 width="200px" height="96.272px" viewBox="79.855 0.245 200 96.272" enable-background="new 79.855 0.245 200 96.272"
	 xml:space="preserve">
<path fill="#A5A5A5" d="M175.668,70.358c-0.051-0.046-0.063-0.123-0.03-0.183l0.461-0.829l-0.313,0.025
	c-0.032,0.004-0.189,0.025-0.391,0.049c-0.739,1.037-2.056,2.094-3.527,1.592c-1.322-0.451-2.006-1.582-2.354-2.491
	c-0.622,1.068-1.148,2.458-1.267,4.208c1.052,0.542,1.801,0.884,1.917,0.938c0.186,0.036,1.888,0.376,4.002,0.681
	c0.746-0.869,2.347-2.892,2.877-4.762l-1.191,0.788C175.795,70.411,175.719,70.406,175.668,70.358z M178.821,39.193
	c-0.913-0.144-7.962-3.801-3.329-4.614c-3.025,0.268-6.272,0.821-9.304,1.734c0.42-0.081,0.865-0.129,1.332-0.129
	c0.053,0,0.105,0.001,0.16,0.002c3.172,0.076,7.324,2.896,7.624,3.102l1.357,0.604c0.05,0.021,0.083,0.07,0.085,0.125
	c0.003,0.055-0.025,0.106-0.071,0.134c-0.483,0.284-1.137,0.818-1.078,1.114c0.011,0.06-0.015,0.122-0.068,0.153
	c-0.054,0.032-0.119,0.027-0.167-0.012c-0.088-0.072-0.174-0.142-0.258-0.208c-0.009-0.006-0.015-0.013-0.022-0.021
	c-0.077-0.089-0.174-0.161-0.293-0.21c-0.008-0.003-0.016-0.008-0.023-0.011c-0.223-0.149-0.436-0.262-0.648-0.344
	c-0.011-0.003-0.021-0.008-0.032-0.011c-0.012-0.004-0.032-0.011-0.042-0.019c-0.209-0.134-0.435-0.278-0.676-0.399
	c-0.65-0.33-1.387-0.534-2.026-0.7c-0.693-0.18-1.402-0.312-2.129-0.441l-0.222-0.041c-0.679-0.123-1.379-0.25-2.078-0.221
	c-1.246,0.051-2.603,0.518-3.822,1.313c-0.679,0.444-1.259,0.926-1.723,1.434c-0.028,0.032-0.068,0.047-0.107,0.047
	c-0.025,0-0.049-0.006-0.072-0.019c-0.059-0.034-0.088-0.103-0.068-0.168c0.324-1.083,0.912-2.873,0.917-2.891
	c0.007-0.022,0.019-0.042,0.035-0.058c0.055-0.056,0.86-0.846,2.171-1.476c-2.642,0.973-5.031,2.256-6.841,3.904
	c-0.01,0.019-0.018,0.036-0.028,0.055c-0.059,1.201-0.063,2.268-0.048,3.107c0.023,0.025,0.038,0.059,0.039,0.094
	c0.009,0.185,0.815,18.47,2.272,21.967c0.725,1.737,3.348,3.628,5.798,5.087c0.243-1.051,0.808-3.415,1.441-5.498
	c-2.962-2.605-1.892-11.702-3.817-12.481c-1.068-0.432-2.721-1.46-4.042-2.332c1.108-2.02,2.769-4.513,4.519-5.238
	c0.335-0.211,0.73-0.309,0.944-0.349c0.013-0.015,0.028-0.033,0.04-0.049c0.385-0.498,1.348-2.518,1.664-3.182
	c0.093-0.196,0.116-0.243,0.126-0.259c0.012-0.022,0.031-0.041,0.053-0.054c0.01-0.005,0.018-0.01,0.028-0.015
	c1.131-1.933,2.289-2.287,4.396-1.964c2.507,0.382,3.825,2.311,4.41,3.497c0.322,0.316,0.504,0.591,0.628,0.776
	c0.056,0.083,0.098,0.148,0.131,0.186c0.021,0.023,0.035,0.053,0.037,0.083c0.079,0.743,0.138,1.339,0.138,1.345
	c0.007,0.07-0.037,0.135-0.104,0.155c-0.068,0.02-0.14-0.013-0.171-0.077l-0.085-0.172c0.209,0.951,0.424,2.064,0.402,2.542
	c-0.042,0.91-1.232,2.09-1.232,2.09s-1.073-0.033-2.102,1.443c-0.865,1.24-1.571,2.679-1.571,2.679l1.902,2.555l3.245-3.264
	c0,0,0.098,0.166,0.275,0.412l0.045-0.045c0,0-0.322-0.478-0.84-1.012c-0.321,1.895-1.722,1.608-2.195,0.882
	c-0.593-0.802,0.99-2.82,2.197-2.267c0.213-1.445,1.695-2.746,1.695-2.746l-0.357-7.8c0.576-0.722,1.284-1.277,2.096-1.262
	C180.005,39.755,179.84,39.354,178.821,39.193z M155.871,51.186c-0.355-0.605-0.917-1.376-1.604-1.644
	c-0.287,0.466-0.547,4.144,1.006,5.856c0.184,0.815-0.296,1.944,0.203,2.641c0.023,0.772-0.927-0.101,0.409,2.979c0,0,0,0,0,0
	C155.768,57.238,155.804,53.747,155.871,51.186z M193.41,56.848c0,0.557,0.267,1.009,0.595,1.009c0.329,0,0.595-0.452,0.595-1.009
	c0-0.557-0.266-1.007-0.595-1.007C193.677,55.84,193.41,56.291,193.41,56.848z M205.852,48.799c0.012,0.027,0.022,0.055,0.035,0.082
	v-0.095L205.852,48.799z M187.884,71.013c-1.466,0.5-2.778-0.549-3.52-1.583c-0.238-0.026-0.433-0.055-0.468-0.059l-0.313-0.025
	l0.46,0.829c0.034,0.061,0.022,0.136-0.028,0.183c-0.028,0.027-0.065,0.039-0.104,0.039c-0.027,0-0.057-0.008-0.081-0.025
	l-1.192-0.787c0.53,1.871,2.132,3.892,2.879,4.762c2.113-0.305,3.816-0.644,4.002-0.681c0.115-0.054,0.865-0.396,1.917-0.938
	c-0.113-1.687-0.602-3.032-1.235-4.114C189.843,69.508,189.16,70.577,187.884,71.013z M205.415,49.542
	c-0.686,0.268-1.249,1.039-1.604,1.644c0.066,2.561,0.104,6.052-0.014,9.831c1.334-3.08,0.386-2.207,0.409-2.98
	c0.498-0.695,0.016-1.825,0.201-2.64C205.962,53.686,205.702,50.006,205.415,49.542z M199.376,50.484
	c-1.628,1.345,3.743,13.449-6.495,15.438c0.602,2.021,1.134,4.245,1.367,5.254c2.449-1.459,5.073-3.35,5.799-5.087
	c1.457-3.497,2.264-21.782,2.271-21.967c0.001-0.035,0.016-0.069,0.038-0.094c0.008-0.354,0.011-0.749,0.008-1.175
	C201.805,45.434,200.76,49.342,199.376,50.484z M179.578,23.351c12.696,0,18.507,3.103,20.611,4.642
	c-0.063-0.121-0.13-0.239-0.203-0.354c-4.984-3.88-14.646-5.038-20.408-5.038c-5.763,0-15.426,1.158-20.409,5.038
	c-0.073,0.116-0.14,0.233-0.202,0.354C161.069,26.452,166.882,23.351,179.578,23.351L179.578,23.351z"/>
<path fill="#404040" d="M175.993,44.297c-0.003-0.03-0.016-0.06-0.037-0.083c-0.035-0.038-0.078-0.103-0.132-0.186
	c-0.275-0.415-0.849-1.278-2.625-2.063c-1.458-0.646-2.805-0.972-4.004-0.972c-1.048,0-2.001,0.25-2.833,0.742
	c-0.021,0.013-0.04,0.032-0.054,0.054c-0.01,0.016-0.033,0.063-0.126,0.259c-0.315,0.664-1.278,2.685-1.664,3.182
	c-0.011,0.017-0.026,0.034-0.039,0.049c-0.344,0.065-1.167,0.279-1.434,0.877c-0.026,0.059-0.011,0.127,0.037,0.17
	c0.047,0.042,0.118,0.048,0.173,0.014c0.382-0.236,3.545,0.26,5.889,0.706c-1.169,0.479-2.905,0.866-2.929,0.87
	c-0.071,0.016-0.12,0.083-0.113,0.156c0.008,0.073,0.067,0.13,0.141,0.132c0,0,0.015,0,0.049,0c0.22,0,1.398-0.029,3.086-0.579
	c1.797-0.588,4.298-2.586,4.59-2.823l1.263-0.342l0.625,1.262c0.031,0.062,0.103,0.095,0.171,0.076
	c0.067-0.02,0.112-0.084,0.104-0.154C176.13,45.636,176.072,45.04,175.993,44.297z M168.998,43.34
	c0.082,0.042,0.193,0.069,0.316,0.069c0.149,0,0.281-0.039,0.361-0.098c0.092,0.086,0.15,0.208,0.15,0.345
	c0,0.262-0.213,0.474-0.476,0.474s-0.475-0.212-0.475-0.474C168.875,43.535,168.921,43.424,168.998,43.34z M172.551,44.771
	c-0.318,0.15-2.035,0.886-4.849,0.886c-0.755,0-1.588-0.054-2.495-0.184l-0.021-0.01c0.546-0.947,0.93-2.423,2.819-2.877
	c-0.205,0.282-0.328,0.631-0.328,1.009c0,0.935,0.741,1.693,1.655,1.693s1.655-0.758,1.655-1.693c0-0.136-0.017-0.268-0.047-0.395
	l0.058,0.032c0.476,0.459,0.968,0.99,1.848,1.215l0.113,0.045C172.853,44.565,172.712,44.661,172.551,44.771z M267.339,86.738
	c0,0,2.925-2.47,8.262-3.52c-8.772-1.123-10.894-6.142-10.894-6.142c0.732,0,2.747-0.207,4.68-1.049
	c-7.823-2.997-10.236-13.032-10.236-13.032s-2.414,10.036-10.236,13.032c1.933,0.842,3.947,1.049,4.68,1.049
	c0,0-2.121,5.019-10.895,6.142c5.338,1.05,8.263,3.52,8.263,3.52s0.055,2.947-7.748,5.532c3.935-1.712,6.195-4.22,6.768-5.025
	c-1.142-0.731-3.482-1.998-6.836-2.657c-0.672-0.131-1.148-0.731-1.125-1.417c0.022-0.683,0.538-1.25,1.217-1.336
	c3.232-0.414,5.954-1.47,7.867-3.05c0.256-0.211,0.48-0.419,0.679-0.618c-0.843-0.18-1.782-0.454-2.711-0.857
	c-0.52-0.227-0.85-0.745-0.838-1.312c0.01-0.41,0.198-0.788,0.504-1.042c-1.529-1.506-2.05-2.738-2.05-2.738
	c0.939,0,3.521-0.264,5.997-1.343c-10.023-3.839-13.117-16.7-13.117-16.7s-3.093,12.86-13.117,16.7
	c2.478,1.08,5.058,1.343,5.996,1.343c0,0-2.719,6.431-13.961,7.871c6.841,1.344,10.589,4.511,10.589,4.511s0.068,3.788-9.976,7.105
	c4.652-2.34,7.785-5.593,8.34-6.572c-1.35-0.909-4.523-2.75-9.222-3.674c-0.671-0.13-1.147-0.73-1.125-1.416
	c0.022-0.685,0.539-1.251,1.218-1.338c5.465-0.699,8.707-2.643,10.464-4.15c0.491-0.42,0.892-0.826,1.215-1.192
	c-1.22-0.216-2.679-0.59-4.095-1.208c-0.52-0.225-0.851-0.744-0.837-1.31c0.012-0.568,0.366-1.069,0.896-1.272
	c0.09-0.035,0.176-0.07,0.266-0.107c-3.766-2.796-4.944-5.583-4.944-5.583c1.292,0,4.847-0.364,8.256-1.85
	c-13.802-5.287-18.062-22.993-18.062-22.993s-1.057,4.39-3.821,9.453c0.012,0.05,0.021,0.102,0.027,0.153
	c0.3,0.889,0.66,2.482,0.356,4.493c-0.418,2.761-1.131,5.169-1.263,5.605c-0.347,1.618-0.729,3.537-0.763,3.902l-0.002,0.059
	c-0.012,0.357-0.034,1.099-0.24,1.835c-0.241,0.863-0.645,1.402-1.063,1.741c-0.444,4.127-1.066,7.619-1.847,10.407
	c-0.016,0.057-0.035,0.11-0.057,0.163c-2.11,5.127-5.086,9.328-7.338,12.071c2.141-2.91,4.768-7.087,6.582-12.037
	c0.002-0.007,0.004-0.012,0.005-0.017c0.815-3.403,1.286-7.444,1.547-11.44c1.197-0.252,1.129-2.333,1.129-2.857
	c0-0.542,0.657-4.265,0.657-4.265s0.697-2.559,1.026-5.468c0.328-2.909-0.903-5.119-1.518-5.352
	c-0.417,0.116-0.879,0.343-1.183,0.507c-0.01-0.193-0.017-0.361-0.023-0.503c0,0,0-0.001,0-0.002c0-0.026,0.009-0.905-0.038-2.31
	c0.364-0.286,2.469-2.097,2.196-5.573c-0.291-3.715-1.962-9.105-1.979-9.159c-0.004-0.016-0.012-0.031-0.021-0.044
	c-0.032-0.042-0.476-0.637-1.53-1.47c-0.615-2.625-2.373-9.153-5.17-11.934c-1.436-1.429-3.261-3.052-5.915-4.274l-1.913-2.02
	c-0.015-0.016-0.034-0.028-0.055-0.037c-0.021-0.007-1.112-0.43-2.968-0.824c-0.012-0.056-0.026-0.111-0.04-0.166
	c-0.031-0.12-0.081-0.32-0.048-0.368c0.118-0.171,0.192-0.321,0.271-0.482c0.022-0.046,0.046-0.093,0.071-0.143
	c0.076-0.15,0.094-0.289,0.112-0.422c0.013-0.091,0.025-0.176,0.055-0.266c0.029-0.087,0.081-0.163,0.137-0.241
	c0.078-0.108,0.163-0.232,0.189-0.394c0.028-0.062,0.27-0.171,0.414-0.236c0.313-0.14,0.583-0.261,0.583-0.48
	c0-0.198-0.189-0.352-0.372-0.499c-0.106-0.086-0.252-0.204-0.264-0.27c-0.009-0.052-0.016-0.104-0.023-0.155
	c-0.03-0.199-0.061-0.405-0.127-0.604c-0.054-0.162-0.174-0.274-0.29-0.383c-0.083-0.078-0.163-0.15-0.205-0.233
	c-0.08-0.157-0.234-0.234-0.371-0.303c-0.103-0.051-0.197-0.099-0.247-0.169c-0.053-0.076-0.093-0.148-0.136-0.225
	c-0.069-0.122-0.14-0.248-0.254-0.374c-0.042-0.046-0.031-0.22-0.023-0.346c0.013-0.221,0.028-0.45-0.122-0.58
	c-0.119-0.104-0.267-0.161-0.409-0.216c-0.109-0.042-0.213-0.082-0.295-0.14c-0.251-0.174-0.45-0.301-0.646-0.41
	c-0.141-0.079-0.298-0.089-0.449-0.101c-0.118-0.008-0.229-0.015-0.317-0.056c-0.141-0.062-0.285-0.09-0.424-0.118
	c-0.104-0.021-0.201-0.04-0.299-0.073c-0.075-0.025-0.152-0.126-0.229-0.223c-0.104-0.134-0.223-0.285-0.396-0.328
	c-0.071-0.018-0.165-0.138-0.247-0.243c-0.125-0.159-0.254-0.322-0.437-0.352c-0.014-0.002-0.028-0.003-0.042-0.003
	c-0.179,0-0.336,0.166-0.5,0.342c-0.092,0.097-0.245,0.26-0.311,0.26c-0.076-0.006-0.183-0.099-0.277-0.181
	c-0.143-0.123-0.29-0.25-0.473-0.25c-0.104,0-0.215-0.017-0.333-0.035c-0.149-0.022-0.306-0.045-0.455-0.033
	c-0.106,0.008-0.219-0.002-0.338-0.014c-0.159-0.015-0.331-0.025-0.462-0.004c-0.157,0.025-0.303,0.097-0.444,0.167
	c-0.108,0.054-0.21,0.104-0.308,0.128c-0.183,0.044-0.289,0.23-0.392,0.409c-0.063,0.112-0.143,0.25-0.208,0.273
	c-0.001,0-0.005,0.001-0.012,0.001c-0.078,0-0.228-0.091-0.35-0.165c-0.172-0.103-0.333-0.201-0.483-0.201
	c-0.043,0-0.084,0.009-0.12,0.024c-0.095,0.042-0.208,0.07-0.329,0.101c-0.156,0.039-0.319,0.08-0.454,0.156
	c-0.191,0.105-0.161,0.417-0.125,0.776c0.015,0.162,0.042,0.428,0.009,0.5c-0.004,0-0.011,0.001-0.019,0.001
	c-0.093,0-0.262-0.066-0.409-0.126c-0.185-0.073-0.359-0.142-0.5-0.142c-0.081,0-0.146,0.022-0.197,0.066
	c-0.14,0.123-0.162,0.329-0.183,0.529c-0.013,0.13-0.029,0.278-0.08,0.333c-0.062,0.068-0.169,0.119-0.282,0.172
	c-0.151,0.071-0.309,0.144-0.405,0.282c-0.115,0.166-0.034,0.392,0.045,0.61c0.042,0.118,0.107,0.297,0.08,0.352
	c-0.03,0.059-0.196,0.115-0.319,0.155c-0.211,0.07-0.429,0.142-0.49,0.331l-0.035,0.105c-0.07,0.209-0.15,0.447-0.186,0.67
	c-0.013,0.08-0.105,0.196-0.188,0.3c-0.127,0.16-0.258,0.324-0.258,0.507c0,0.226,0.299,0.335,0.679,0.473
	c0.161,0.059,0.425,0.154,0.486,0.22c-0.036,0.079-0.249,0.253-0.38,0.358c-0.291,0.235-0.542,0.438-0.473,0.649
	c0.06,0.185,0.29,0.27,0.508,0.351c0.13,0.049,0.311,0.116,0.34,0.176c0.078,0.152,0.223,0.244,0.354,0.325
	c0.1,0.062,0.193,0.12,0.244,0.194c0.093,0.134,0.218,0.213,0.336,0.29c0.039,0.025,0.078,0.05,0.113,0.075
	c-2.108,0.416-3.364,0.902-3.386,0.911c-0.021,0.009-0.039,0.021-0.055,0.036l-1.914,2.02c-2.653,1.222-4.479,2.846-5.914,4.274
	c-2.796,2.782-4.553,9.31-5.171,11.934c-1.053,0.833-1.497,1.428-1.529,1.47c-0.01,0.013-0.017,0.028-0.021,0.044
	c-0.017,0.054-1.689,5.443-1.979,9.16c-0.272,3.477,1.833,5.288,2.196,5.572c-0.046,1.405-0.037,2.283-0.037,2.31c0,0,0,0,0,0.001
	c-0.008,0.143-0.016,0.313-0.024,0.504c-0.304-0.164-0.765-0.391-1.183-0.507c-0.615,0.232-1.847,2.443-1.518,5.352
	c0.328,2.909,1.025,5.468,1.025,5.468s0.657,3.723,0.657,4.267c0,0.521-0.068,2.604,1.13,2.855c0.261,3.996,0.73,8.038,1.546,11.44
	c0.001,0.006,0.003,0.012,0.005,0.017c1.815,4.948,4.439,9.125,6.582,12.036c-2.253-2.744-5.227-6.944-7.335-12.065
	c-0.024-0.059-0.042-0.113-0.058-0.167c-0.781-2.79-1.402-6.282-1.848-10.409c-0.419-0.338-0.822-0.878-1.063-1.74
	c-0.206-0.738-0.229-1.479-0.24-1.837l-0.001-0.059c-0.034-0.365-0.417-2.284-0.764-3.901c-0.132-0.436-0.845-2.844-1.262-5.605
	c-0.263-1.732-0.06-3.365,0.396-4.625c-2.773-5.07-3.833-9.474-3.833-9.474s-4.26,17.707-18.062,22.993
	c3.41,1.486,6.964,1.85,8.255,1.85c0,0-1.177,2.788-4.944,5.583c0.089,0.036,0.176,0.072,0.266,0.106
	c0.53,0.203,0.883,0.706,0.896,1.272c0.012,0.567-0.317,1.085-0.838,1.311c-1.416,0.616-2.875,0.991-4.095,1.207
	c0.324,0.368,0.725,0.773,1.215,1.192c1.758,1.508,5,3.451,10.466,4.15c0.679,0.087,1.193,0.654,1.216,1.338
	c0.022,0.685-0.454,1.286-1.125,1.417c-4.698,0.923-7.871,2.765-9.221,3.673c0.554,0.98,3.688,4.232,8.34,6.572
	c-10.043-3.317-9.975-7.105-9.975-7.105s3.747-3.167,10.587-4.511c-11.242-1.439-13.96-7.871-13.96-7.871
	c0.937,0,3.519-0.264,5.996-1.343c-10.024-3.839-13.117-16.7-13.117-16.7s-3.093,12.861-13.117,16.7
	c2.477,1.08,5.058,1.343,5.997,1.343c0,0-0.521,1.233-2.049,2.739c0.306,0.254,0.495,0.63,0.504,1.042
	c0.011,0.566-0.319,1.084-0.839,1.311c-0.928,0.405-1.867,0.678-2.71,0.857c0.197,0.199,0.423,0.407,0.679,0.618
	c1.914,1.582,4.634,2.636,7.867,3.05c0.68,0.086,1.195,0.653,1.218,1.338c0.022,0.684-0.454,1.284-1.126,1.417
	c-3.354,0.659-5.694,1.924-6.835,2.656c0.57,0.806,2.833,3.314,6.767,5.027c-7.802-2.587-7.748-5.533-7.748-5.533
	s2.924-2.471,8.262-3.52c-8.772-1.123-10.894-6.142-10.894-6.142c0.731,0,2.746-0.207,4.68-1.049
	c-7.823-2.997-10.237-13.032-10.237-13.032s-2.414,10.036-10.236,13.032c1.933,0.842,3.946,1.049,4.68,1.049
	c0,0-2.12,5.019-10.894,6.142c5.338,1.05,8.262,3.52,8.262,3.52s0.075,4.045-12.501,6.817c2.734,0.496,10.861,0.758,19.273,0.784
	c8.058,0.288,22.234,0,22.234,0c5.431-0.011,10.799-0.099,15.272-0.263c4.884,0.162,9.489,0.262,9.489,0.262
	c7.534,0.02,15.175-0.422,21.751-0.999c1.027,1.113,1.687,1.725,1.699,1.735c0.02,0.019,0.045,0.03,0.072,0.035
	c0.069,0.015,7.016,1.406,10.192,1.406c0.006,0,0.012-0.001,0.018-0.002c0.005,0.001,0.011,0.002,0.016,0.002
	c3.175,0,10.124-1.392,10.193-1.406c0.027-0.005,0.052-0.018,0.072-0.035c0.011-0.012,0.673-0.622,1.698-1.735
	c6.576,0.577,14.219,1.019,21.752,0.999c0,0,4.605-0.101,9.489-0.262c4.472,0.164,9.84,0.251,15.272,0.263
	c0,0,14.175,0.287,22.232,0c8.413-0.026,16.54-0.288,19.274-0.784C267.266,90.783,267.339,86.738,267.339,86.738z M203.813,51.186
	c0.355-0.605,0.917-1.376,1.604-1.644c0.288,0.466,0.546,4.144-1.006,5.856c-0.186,0.815,0.297,1.944-0.201,2.641
	c-0.023,0.772,0.926-0.101-0.409,2.979C203.916,57.237,203.879,53.747,203.813,51.186z M155.885,61.017
	c-1.336-3.08-0.386-2.207-0.409-2.98c-0.499-0.695-0.019-1.825-0.203-2.64c-1.553-1.712-1.292-5.391-1.006-5.856
	c0.686,0.269,1.249,1.04,1.604,1.644C155.804,53.747,155.768,57.238,155.885,61.017C155.886,61.017,155.886,61.017,155.885,61.017z
	 M159.167,27.639c4.985-3.879,14.647-5.038,20.41-5.038c5.761,0,15.424,1.159,20.408,5.038c0.073,0.116,0.141,0.233,0.202,0.354
	c-2.103-1.54-7.916-4.642-20.611-4.642h-0.003c-12.695,0-18.507,3.103-20.61,4.642C159.026,27.872,159.094,27.754,159.167,27.639z
	 M189.518,73.667c-0.186,0.036-1.888,0.376-4.001,0.681c-0.746-0.869-2.348-2.891-2.879-4.762l1.191,0.787
	c0.025,0.017,0.056,0.026,0.082,0.026c0.037,0,0.073-0.014,0.103-0.041c0.051-0.046,0.062-0.123,0.029-0.183l-0.461-0.829
	l0.313,0.025c0.073,0.011,0.883,0.121,1.267,0.121c0.113,0,0.302,0,0.334-0.152c0.031-0.15-0.134-0.22-0.212-0.254
	c-0.347-0.15-0.753-0.843-1.016-1.376c1.486-0.301,2.694-0.61,2.792-0.635c0.058-0.015,0.102-0.064,0.11-0.123
	c0.009-0.06-0.02-0.12-0.071-0.151c-0.035-0.021-0.877-0.515-2.678-0.515c-0.131,0-0.267,0.003-0.403,0.008
	c-0.57,0.023-1.201,0.035-1.874,0.035c-1.271,0-2.271-0.042-2.28-0.042c-0.009,0-0.015,0.002-0.024,0.003
	c-0.008,0-0.015-0.003-0.024-0.003c-0.01,0-1.009,0.042-2.281,0.042c-0.672,0-1.303-0.012-1.874-0.035
	c-0.135-0.005-0.27-0.008-0.402-0.008c-1.801,0-2.644,0.494-2.679,0.515c-0.051,0.031-0.08,0.09-0.07,0.151
	c0.009,0.059,0.052,0.107,0.11,0.123c0.098,0.025,1.306,0.335,2.792,0.635c-0.264,0.533-0.669,1.227-1.016,1.376
	c-0.079,0.034-0.243,0.104-0.211,0.254c0.032,0.152,0.22,0.152,0.333,0.152c0.384,0,1.193-0.109,1.267-0.121l0.314-0.025
	l-0.461,0.829c-0.034,0.06-0.021,0.136,0.029,0.183c0.051,0.047,0.127,0.053,0.185,0.014l1.192-0.787
	c-0.531,1.87-2.132,3.892-2.878,4.762c-2.113-0.305-3.816-0.644-4.002-0.681c-0.116-0.054-0.865-0.396-1.917-0.938
	c0.187-2.75,1.38-4.607,2.365-5.727c0.017-0.001,0.035-0.009,0.046-0.022c0.028-0.031,2.931-3.045,7.291-3.214
	c0.697,0.399,1.826,0.404,1.875,0.404c0.007,0,0.012-0.002,0.018-0.003c0.005,0.001,0.012,0.003,0.017,0.003
	c0.048,0,1.179-0.004,1.874-0.404c3.611,0.139,6.223,2.231,7.028,2.963c1.217,1.27,2.483,3.149,2.674,6
	C190.384,73.271,189.634,73.614,189.518,73.667z M176.882,60.255c1.699,0.314,2.843,1.119,2.855,1.127
	c0.031,0.022,0.067,0.03,0.104,0.025c0.035,0.004,0.074-0.003,0.105-0.025c0.011-0.008,1.152-0.812,2.855-1.127
	c1.635,0.967,4.063,3.632,5.081,5.576c-0.108-0.078-0.223-0.158-0.343-0.239c-1.116-1.823-3.564-4.072-4.85-4.719
	c-0.012-0.007-0.026-0.009-0.041-0.008c-0.83,0.078-2.61,0.954-2.809,1.051c-0.196-0.098-1.978-0.973-2.808-1.051
	c-0.014-0.001-0.028,0.001-0.041,0.008c-1.285,0.647-3.733,2.896-4.849,4.719c-0.15,0.101-0.289,0.197-0.417,0.292
	C172.702,63.969,175.191,61.254,176.882,60.255z M175.399,56.265c0.942-0.162,2.398,0.81,2.398,0.81s-0.25,0.353-0.533,0.803
	c-0.437-0.191-0.742-0.34-0.75-0.344c-0.037-0.019-0.082-0.021-0.123-0.005c-0.059,0.024-0.399,0.158-0.909,0.377
	C174.992,57.15,174.809,56.367,175.399,56.265z M181.886,57.075c0,0,1.455-0.972,2.397-0.81c0.59,0.102,0.406,0.885-0.084,1.641
	c-0.51-0.219-0.85-0.353-0.909-0.377c-0.039-0.015-0.084-0.014-0.123,0.005c-0.009,0.004-0.313,0.153-0.751,0.344
	C182.135,57.428,181.886,57.075,181.886,57.075z M191.562,62.417c-0.768-1.315-3.799-2.894-5.972-3.894l0.98-1.61l-3.3-3.319
	c0,0-1.585,2.652-3.412,2.652c0,1.718,0,1.837,0,1.837l1.482,0.224c-0.528,0.189-1.072,0.346-1.481,0.372h-0.001
	c-0.007,0-0.012,0.001-0.019,0.002c-0.006-0.001-0.011-0.002-0.017-0.002c-0.407-0.026-0.952-0.183-1.48-0.372l1.482-0.224
	c0,0,0-0.119,0-1.837c-1.827,0-3.412-2.652-3.412-2.652l-3.3,3.319l0.981,1.61c-2.172,1.001-5.203,2.579-5.971,3.894
	c-1.011,1.733-2.286,7.026-2.687,8.759c-2.449-1.459-5.074-3.35-5.798-5.087c-1.458-3.497-2.264-21.782-2.272-21.967
	c-0.001-0.035-0.015-0.069-0.038-0.094c-0.016-0.839-0.012-1.906,0.048-3.107c0.01-0.018,0.019-0.036,0.028-0.055
	c1.81-1.649,4.199-2.932,6.84-3.904c-1.311,0.629-2.116,1.421-2.171,1.476c-0.016,0.016-0.028,0.035-0.035,0.058
	c-0.007,0.018-0.592,1.807-0.917,2.891c-0.02,0.065,0.009,0.135,0.068,0.168c0.022,0.013,0.047,0.019,0.072,0.019
	c0.04,0,0.08-0.015,0.107-0.047c0.464-0.508,1.044-0.989,1.724-1.434c1.219-0.796,2.577-1.262,3.821-1.313
	c0.698-0.029,1.399,0.099,2.078,0.221l0.223,0.041c0.728,0.13,1.437,0.262,2.13,0.441c0.639,0.166,1.376,0.371,2.026,0.7
	c0.241,0.122,0.466,0.265,0.675,0.399c0.011,0.008,0.031,0.015,0.042,0.019c0.011,0.003,0.021,0.007,0.032,0.011
	c0.213,0.082,0.425,0.195,0.649,0.344c0.007,0.004,0.014,0.008,0.023,0.011c0.118,0.05,0.217,0.121,0.292,0.21
	c0.007,0.008,0.014,0.015,0.021,0.021c0.083,0.065,0.172,0.135,0.258,0.208c0.048,0.04,0.115,0.044,0.167,0.013
	c0.054-0.032,0.081-0.093,0.068-0.153c-0.058-0.296,0.595-0.83,1.078-1.114c0.047-0.028,0.075-0.081,0.072-0.134
	c-0.003-0.054-0.037-0.103-0.086-0.125l-1.357-0.604c-0.299-0.207-4.453-3.027-7.624-3.102c-0.055-0.001-0.107-0.001-0.161-0.001
	c-0.467,0-0.912,0.047-1.331,0.127c4.56-1.374,9.605-1.932,13.654-1.932c4.048,0,9.094,0.557,13.653,1.932
	c-0.42-0.081-0.865-0.127-1.331-0.127c-0.055,0-0.106,0-0.161,0.001c-3.172,0.075-7.325,2.895-7.625,3.102l-1.357,0.604
	c-0.049,0.022-0.081,0.07-0.084,0.125c-0.004,0.055,0.023,0.106,0.071,0.134c0.482,0.284,1.136,0.818,1.077,1.114
	c-0.012,0.061,0.015,0.122,0.068,0.153s0.12,0.026,0.167-0.013c0.091-0.075,0.174-0.142,0.259-0.208
	c0.009-0.006,0.014-0.013,0.021-0.021c0.077-0.089,0.174-0.161,0.292-0.21c0.009-0.003,0.016-0.008,0.022-0.011
	c0.224-0.149,0.437-0.262,0.649-0.344c0.012-0.004,0.021-0.008,0.038-0.013c0.013-0.004,0.024-0.009,0.035-0.017
	c0.209-0.134,0.434-0.278,0.675-0.399c0.651-0.33,1.389-0.534,2.026-0.7c0.693-0.18,1.403-0.312,2.13-0.441l0.223-0.041
	c0.679-0.123,1.378-0.25,2.078-0.222c1.244,0.051,2.603,0.518,3.82,1.313c0.681,0.444,1.26,0.926,1.724,1.434
	c0.028,0.032,0.068,0.047,0.106,0.047c0.025,0,0.05-0.006,0.073-0.019c0.059-0.034,0.087-0.103,0.067-0.168
	c-0.325-1.083-0.911-2.873-0.916-2.891c-0.008-0.022-0.019-0.041-0.035-0.058c-0.056-0.056-0.86-0.846-2.171-1.476
	c2.641,0.973,5.03,2.256,6.841,3.904c0.01,0.018,0.019,0.036,0.028,0.055c0.058,1.202,0.063,2.268,0.048,3.107
	c-0.023,0.025-0.038,0.058-0.039,0.094c-0.009,0.185-0.814,18.47-2.271,21.967c-0.726,1.737-3.349,3.628-5.799,5.087
	C193.848,69.445,192.572,64.151,191.562,62.417z M195.203,45.279c-0.014-0.016-0.027-0.033-0.041-0.049
	c-0.385-0.498-1.348-2.52-1.664-3.183c-0.092-0.194-0.114-0.241-0.125-0.257c-0.012-0.022-0.031-0.041-0.053-0.054
	c-0.832-0.492-1.785-0.742-2.834-0.742c-1.199,0-2.547,0.327-4.004,0.972c-1.775,0.786-2.35,1.648-2.625,2.063
	c-0.055,0.083-0.098,0.148-0.133,0.186c-0.021,0.023-0.033,0.053-0.035,0.083c-0.082,0.751-0.14,1.345-0.14,1.345
	c-0.007,0.07,0.037,0.135,0.104,0.155c0.068,0.02,0.14-0.013,0.172-0.077l0.625-1.261l1.262,0.342
	c0.291,0.235,2.792,2.235,4.591,2.823c1.688,0.55,2.866,0.579,3.087,0.579c0.032,0,0.049,0,0.049,0
	c0.074-0.002,0.134-0.059,0.14-0.132c0.008-0.073-0.041-0.14-0.112-0.156c-0.023-0.005-1.758-0.392-2.929-0.871
	c2.343-0.445,5.505-0.941,5.889-0.705c0.056,0.035,0.125,0.028,0.173-0.014c0.049-0.042,0.063-0.111,0.036-0.17
	C196.369,45.558,195.547,45.344,195.203,45.279z M190.008,43.312c0.08,0.059,0.211,0.098,0.359,0.098
	c0.125,0,0.237-0.028,0.316-0.069c0.078,0.083,0.125,0.195,0.125,0.316c0,0.261-0.213,0.474-0.477,0.474
	c-0.263,0-0.476-0.212-0.476-0.474C189.856,43.521,189.915,43.398,190.008,43.312z M194.476,45.472
	c-0.906,0.13-1.739,0.185-2.494,0.185c-2.813,0-4.53-0.735-4.85-0.885c-0.161-0.11-0.302-0.206-0.409-0.279l0.113-0.046
	c0.88-0.224,1.372-0.754,1.849-1.214l0.058-0.032c-0.031,0.127-0.048,0.259-0.048,0.395c0,0.935,0.741,1.693,1.655,1.693
	s1.655-0.758,1.655-1.693c0-0.379-0.123-0.728-0.329-1.009c1.89,0.453,2.272,1.93,2.82,2.876L194.476,45.472z"/>
</svg>
