<?xml version="1.0" encoding="utf-8"?>
<!-- Generator: Adobe Illustrator 16.0.3, SVG Export Plug-In . SVG Version: 6.00 Build 0)  -->
<!DOCTYPE svg PUBLIC "-//W3C//DTD SVG 1.1//EN" "http://www.w3.org/Graphics/SVG/1.1/DTD/svg11.dtd">
<svg version="1.1" id="Layer_1" xmlns="http://www.w3.org/2000/svg" xmlns:xlink="http://www.w3.org/1999/xlink" x="0px" y="0px"
	 width="25px" height="20.625px" viewBox="107.291 88.513 25 20.625" enable-background="new 107.291 88.513 25 20.625"
	 xml:space="preserve">
<g>
	<path fill="#FFFFFF" d="M113.343,104.055l-1.41,5.083h-4.642l6.052-19.802h5.876l6.14,19.802h-4.818l-1.528-5.083H113.343z
		 M118.367,100.706l-1.234-4.202c-0.353-1.175-0.706-2.645-0.999-3.819h-0.059c-0.293,1.175-0.587,2.673-0.911,3.819l-1.175,4.202
		H118.367z"/>
	<path fill="#FFFFFF" d="M132.291,90.776c0,1.234-0.94,2.233-2.409,2.233c-1.41,0-2.351-0.999-2.321-2.233
		c-0.029-1.293,0.911-2.262,2.351-2.262S132.262,89.483,132.291,90.776z M127.679,109.138V94.771h4.465v14.367H127.679z"/>
</g>
</svg>
