<?xml version="1.0" encoding="utf-8"?>
<!-- Generator: Adobe Illustrator 16.0.3, SVG Export Plug-In . SVG Version: 6.00 Build 0)  -->
<!DOCTYPE svg PUBLIC "-//W3C//DTD SVG 1.1//EN" "http://www.w3.org/Graphics/SVG/1.1/DTD/svg11.dtd">
<svg version="1.1" id="Layer_1" xmlns="http://www.w3.org/2000/svg" xmlns:xlink="http://www.w3.org/1999/xlink" x="0px" y="0px"
	 width="19.307px" height="20px" viewBox="70.641 73.178 19.307 20" enable-background="new 70.641 73.178 19.307 20"
	 xml:space="preserve">
<g>
	<path fill="#FFFFFF" d="M70.641,82.2c1.73-0.051,1.906-0.953,1.906-1.705c0-0.625-0.076-1.277-0.151-1.953
		c-0.074-0.678-0.125-1.354-0.125-1.981c0-2.356,1.48-3.383,3.811-3.383h0.877v2.13h-0.451c-1.128,0-1.53,0.677-1.53,1.78
		c0,0.451,0.076,0.902,0.125,1.429c0.05,0.501,0.125,1.078,0.125,1.704c0.025,1.905-0.752,2.607-2.131,2.907v0.051
		c1.379,0.3,2.155,1.028,2.131,2.932c0,0.651-0.075,1.228-0.125,1.754c-0.05,0.502-0.125,0.979-0.125,1.403
		c0,1.104,0.376,1.806,1.53,1.806h0.451v2.104h-0.903c-2.231,0-3.785-0.901-3.785-3.408c0-0.627,0.051-1.304,0.125-1.98
		c0.076-0.677,0.151-1.329,0.151-1.954c0-0.702-0.175-1.654-1.905-1.705V82.2L70.641,82.2z"/>
	<path fill="#FFFFFF" d="M89.948,84.13c-1.704,0.051-1.905,1.003-1.905,1.705c0,0.625,0.076,1.277,0.15,1.954
		c0.075,0.677,0.151,1.354,0.151,1.98c0,2.507-1.555,3.408-3.812,3.408h-0.901v-2.104h0.451c1.152-0.025,1.528-0.702,1.528-1.806
		c0-0.425-0.05-0.901-0.124-1.403c-0.052-0.526-0.126-1.103-0.126-1.754c-0.025-1.904,0.752-2.632,2.155-2.932v-0.051
		c-1.403-0.3-2.181-1.002-2.155-2.907c0-0.625,0.074-1.203,0.126-1.704c0.074-0.526,0.124-0.978,0.124-1.429
		c0-1.103-0.401-1.754-1.528-1.78h-0.451v-2.13h0.877c2.357,0,3.836,1.027,3.836,3.383c0,0.626-0.076,1.303-0.151,1.981
		c-0.074,0.677-0.15,1.328-0.15,1.953c0,0.752,0.201,1.654,1.905,1.706V84.13z"/>
</g>
</svg>
