<?xml version="1.0" encoding="utf-8"?>
<!-- Generator: Adobe Illustrator 16.0.3, SVG Export Plug-In . SVG Version: 6.00 Build 0)  -->
<!DOCTYPE svg PUBLIC "-//W3C//DTD SVG 1.1//EN" "http://www.w3.org/Graphics/SVG/1.1/DTD/svg11.dtd">
<svg version="1.1" id="Layer_1" xmlns="http://www.w3.org/2000/svg" xmlns:xlink="http://www.w3.org/1999/xlink" x="0px" y="0px"
	 width="20px" height="22.145px" viewBox="158.288 165.498 20 22.145" enable-background="new 158.288 165.498 20 22.145"
	 xml:space="preserve">
<path fill="#FFFFFF" d="M165.559,170.899c-0.049,0.235,0.083,0.394,0.194,0.253c0.036,1.469,1.129,3.191,2.588,3.191
	c1.452,0,2.541-1.706,2.588-3.168c0.106,0.098,0.22-0.055,0.174-0.276c-0.031-0.151,0.192-0.441,0.256-0.626
	c0.064-0.186,0.09-1.03-0.103-1.03c-0.109,0-0.204,0.078-0.265,0.146l0.036-1.012c0-1.483-1.203-2.879-2.686-2.879
	s-2.686,1.396-2.686,2.879l0.037,1.038c-0.059-0.072-0.164-0.171-0.287-0.171c-0.192,0-0.167,0.844-0.103,1.03
	C165.366,170.458,165.589,170.748,165.559,170.899z M161.127,184.996c0.054,0.652,0.677,1.177,1.393,1.177h11.542
	c0.716,0,1.338-0.524,1.392-1.177l0.591-7.144c0.064-0.776-0.529-1.409-1.325-1.409h-12.861c-0.796,0-1.389,0.633-1.325,1.409
	L161.127,184.996z M172.828,181.813l-0.513,0.067l0.313,0.841l-0.48,0.18l-0.314-0.842l-0.432,0.285l-0.168-2.626L172.828,181.813z
	 M163.415,182.039c0.122-0.053,0.258-0.037,0.362,0.031l2.201-0.954c0.367-0.283,0.804-0.471,1.231-0.653
	c0.75-0.32,1.396-0.597,1.607-1.307c0.127-0.429,0.063-0.86-0.185-1.248c-0.099-0.154-0.053-0.358,0.101-0.457
	c0.154-0.099,0.358-0.054,0.456,0.101c0.35,0.545,0.442,1.182,0.261,1.791c-0.034,0.116-0.076,0.223-0.125,0.323l1.149-0.498
	c0.022-0.123,0.103-0.232,0.226-0.285c0.195-0.084,0.42,0.005,0.505,0.2s-0.005,0.42-0.2,0.505c-0.116,0.05-0.243,0.038-0.345-0.021
	l-1.963,0.851c-0.371,0.285-0.813,0.475-1.228,0.651c-0.538,0.23-1.046,0.448-1.36,0.829c-0.163,0.197-0.226,0.428-0.194,0.702
	c0.067,0.59,0.551,1.206,0.973,1.529c0.145,0.111,0.172,0.319,0.061,0.464c-0.065,0.085-0.163,0.129-0.263,0.129
	c-0.07,0-0.141-0.021-0.201-0.068c-0.546-0.419-1.137-1.192-1.228-1.978c-0.033-0.293,0.005-0.567,0.11-0.816l-1.425,0.617
	c-0.026,0.114-0.105,0.216-0.221,0.265c-0.195,0.085-0.421-0.004-0.505-0.199C163.131,182.35,163.221,182.124,163.415,182.039z
	 M172.878,175.278c0,0-0.486-0.132-1.182-0.287c0-0.001,0-0.001-0.001-0.001c-0.644-0.179-1.046-0.406-1.292-0.641
	c-0.564,0.534-1.271,0.877-2.063,0.877c-0.818,0-1.542-0.362-2.114-0.921c-0.24,0.25-0.652,0.496-1.336,0.686
	c-0.001,0-0.001,0-0.001,0.001c-0.696,0.155-1.182,0.287-1.182,0.287c-0.334,0.058-0.664,0.153-0.977,0.284h11.125
	C173.542,175.431,173.212,175.335,172.878,175.278z M159.823,179.947c-0.47,1.206-0.964,2.475-1.252,3.181
	c-0.538,1.317-0.367,2.094,1.006,2.69c0.294,0.128,0.667,0.249,1.113,0.36c-0.248-0.314-0.407-0.695-0.441-1.109L159.823,179.947z
	 M175.156,186.908h-13.801c-0.194,0-0.351,0.157-0.351,0.351v0.033c0,0.193,0.157,0.351,0.351,0.351h13.802
	c0.194,0,0.352-0.157,0.352-0.351v-0.033C175.508,187.065,175.351,186.908,175.156,186.908z M178.014,183.128
	c-0.289-0.709-0.786-1.985-1.257-3.193l-0.425,5.134c-0.034,0.408-0.19,0.784-0.431,1.096c0.429-0.106,0.789-0.224,1.07-0.346
	C178.345,185.222,178.551,184.445,178.014,183.128z"/>
</svg>
