<?xml version="1.0" encoding="utf-8"?>
<!-- Generator: Adobe Illustrator 16.0.3, SVG Export Plug-In . SVG Version: 6.00 Build 0)  -->
<!DOCTYPE svg PUBLIC "-//W3C//DTD SVG 1.1//EN" "http://www.w3.org/Graphics/SVG/1.1/DTD/svg11.dtd">
<svg version="1.1" id="Layer_1" xmlns="http://www.w3.org/2000/svg" xmlns:xlink="http://www.w3.org/1999/xlink" x="0px" y="0px"
	 width="25px" height="25px" viewBox="167.598 167.57 25 25" enable-background="new 167.598 167.57 25 25" xml:space="preserve">
<path fill="#FFFFFF" d="M180.098,192.57c-6.893,0-12.5-5.607-12.5-12.5s5.607-12.5,12.5-12.5s12.5,5.607,12.5,12.5
	S186.99,192.57,180.098,192.57z M180.098,169.594c-5.777,0-10.477,4.7-10.477,10.477c0,5.776,4.7,10.477,10.477,10.477
	c5.776,0,10.477-4.7,10.477-10.477C190.574,174.293,185.874,169.594,180.098,169.594z"/>
<g>
	<g>
		<g>
			<path fill="#FFFFFF" d="M171.574,182.471v-4.181h1.997v4.181H171.574z"/>
		</g>
		<circle fill="#FFFFFF" cx="172.573" cy="176.908" r="0.998"/>
	</g>
	<path fill="#FFFFFF" d="M178.524,180.949v0.059c0,0.52-0.18,0.919-0.539,1.2c-0.36,0.282-0.874,0.423-1.542,0.423
		c-0.724,0-1.253-0.158-1.587-0.474c-0.334-0.316-0.501-0.817-0.501-1.504c0-0.77,0.161-1.318,0.481-1.646
		c0.32-0.328,0.856-0.491,1.607-0.491c0.675,0,1.191,0.135,1.547,0.405c0.356,0.27,0.534,0.66,0.534,1.17v0.069h-1.657v-0.1
		c0-0.172-0.029-0.3-0.086-0.383c-0.058-0.083-0.147-0.124-0.269-0.124c-0.117,0-0.204,0.037-0.26,0.11
		c-0.057,0.074-0.084,0.188-0.084,0.341v1.165c0,0.154,0.028,0.267,0.084,0.338c0.056,0.071,0.143,0.106,0.26,0.106
		c0.126,0,0.218-0.041,0.275-0.124c0.058-0.083,0.086-0.216,0.086-0.399c0-0.012-0.001-0.033-0.003-0.065
		c-0.002-0.032-0.003-0.058-0.003-0.076H178.524L178.524,180.949z"/>
	<path fill="#FFFFFF" d="M181.467,178.53c0.778,0,1.333,0.162,1.664,0.484c0.331,0.322,0.496,0.866,0.496,1.632
		c0,0.691-0.171,1.193-0.512,1.507s-0.891,0.471-1.648,0.471c-0.765,0-1.314-0.16-1.648-0.479c-0.334-0.319-0.501-0.842-0.501-1.567
		c0-0.73,0.167-1.254,0.501-1.571C180.152,178.689,180.702,178.53,181.467,178.53z M181.814,180.06c0-0.186-0.026-0.319-0.079-0.399
		c-0.053-0.081-0.141-0.121-0.262-0.121c-0.119,0-0.207,0.042-0.262,0.125c-0.056,0.084-0.083,0.216-0.083,0.395v1.031
		c0,0.184,0.027,0.316,0.083,0.399c0.055,0.083,0.143,0.124,0.262,0.124s0.206-0.041,0.26-0.122
		c0.054-0.082,0.081-0.216,0.081-0.401V180.06L181.814,180.06z"/>
	<path fill="#FFFFFF" d="M186.856,182.496v-2.04c0-0.264-0.024-0.434-0.075-0.508s-0.141-0.112-0.269-0.112
		c-0.124,0-0.213,0.038-0.266,0.114c-0.053,0.076-0.079,0.209-0.079,0.399v2.146h-1.765v-3.838h1.713l-0.014,0.655h0.048
		c0.083-0.252,0.226-0.447,0.43-0.584c0.203-0.137,0.45-0.205,0.742-0.205c0.443,0,0.771,0.129,0.981,0.388
		c0.212,0.258,0.317,0.659,0.317,1.201v2.384H186.856z"/>
</g>
</svg>
