<?xml version="1.0" encoding="utf-8"?>
<!-- Generator: Adobe Illustrator 16.0.3, SVG Export Plug-In . SVG Version: 6.00 Build 0)  -->
<!DOCTYPE svg PUBLIC "-//W3C//DTD SVG 1.1//EN" "http://www.w3.org/Graphics/SVG/1.1/DTD/svg11.dtd">
<svg version="1.1" xmlns="http://www.w3.org/2000/svg" xmlns:xlink="http://www.w3.org/1999/xlink" x="0px" y="0px" width="200px"
	 height="200px" viewBox="0 0 200 200" enable-background="new 0 0 200 200" xml:space="preserve">
<g id="Layer_4">
</g>
<g id="Layer_2">
</g>
<g id="Layer_3">
	<circle cx="100" cy="100" r="100"/>
	<g>
		<path fill="#FFFFFF" d="M71.541,135.59c-0.693,5.012-2.847,15.037-13.375,15.037s-12.85-10.025-13.53-15.037l-19.308,0.093
			c0.187,10.21,3.388,18.302,9.607,24.272c6.219,5.973,14.62,8.958,25.201,8.958c7.055,0,13.334-1.408,18.844-4.224
			c5.506-2.814,9.932-6.854,13.272-12.114c2.104-3.341,3.604-7.253,4.502-11.741c0.897-4.486,1.347-11.494,1.347-21.024v-7.183
			H80.652L71.541,135.59z"/>
		<path fill="#FFFFFF" d="M70.006,83.422l20.644-52.335H55.318v7.781h14.688V83.422z M111.664,93.657L99.638,61L87.719,93.657
			H111.664z M129.896,38.868h14.687v-7.781h-35.476l20.789,52.617V38.868z"/>
		<path fill="#FFFFFF" d="M119.348,112.627h-17.449v7.183c0,9.53,0.449,16.538,1.347,21.024c0.897,4.488,2.398,8.4,4.502,11.741
			c3.341,5.261,7.767,9.3,13.272,12.114c5.51,2.815,11.789,4.224,18.844,4.224c10.581,0,18.982-2.985,25.201-8.958
			c6.22-5.971,9.421-14.063,9.607-24.272l-19.308-0.093c-0.681,5.012-3.002,15.037-13.53,15.037s-12.682-10.025-13.375-15.037
			L119.348,112.627z"/>
	</g>
</g>
</svg>
