<?xml version="1.0" encoding="utf-8"?>
<!-- Generator: Adobe Illustrator 16.0.3, SVG Export Plug-In . SVG Version: 6.00 Build 0)  -->
<!DOCTYPE svg PUBLIC "-//W3C//DTD SVG 1.1//EN" "http://www.w3.org/Graphics/SVG/1.1/DTD/svg11.dtd">
<svg version="1.1" id="Layer_1" xmlns="http://www.w3.org/2000/svg" xmlns:xlink="http://www.w3.org/1999/xlink" x="0px" y="0px"
	 width="25px" height="22.639px" viewBox="165.5 14 25 22.639" enable-background="new 165.5 14 25 22.639" xml:space="preserve">
<path fill="#FFFFFF" d="M171.332,15.396c-0.381,0.157-0.693,0.536-0.693,0.966v7.328c0.208-0.128,0.416-0.223,0.643-0.272
	L171.332,15.396z M165.5,32.507c0,0.69,0.612,1.285,1.302,1.285h7.576c-0.035,0.518-0.184,1.682-0.823,2.847h8.889
	c-0.658-1.301-0.8-2.366-0.828-2.847h7.686c0.69,0,1.198-0.594,1.198-1.285v-1.215h-25V32.507z M178.018,31.778
	c0.447,0,0.81,0.363,0.81,0.81s-0.363,0.81-0.81,0.81c-0.448,0-0.811-0.363-0.811-0.81S177.57,31.778,178.018,31.778z
	 M189.302,17.333h-2.621v-1.875h-13.925l0.003-0.831L172.761,14h-1.011c-0.629,0-1.272,0.234-1.735,0.673
	c-0.482,0.458-0.765,1.046-0.765,1.688v0.972h-2.448c-0.69,0-1.302,0.525-1.302,1.215v11.979h25V18.549
	C190.5,17.858,189.992,17.333,189.302,17.333z M186.056,27.056H171.75c-1.005,0-1.875-0.862-1.875-1.858v-8.836
	c0-0.979,0.896-1.736,1.875-1.736h0.383l-0.006,1.458h13.928v4.028h-0.764v-3.264h-13.167l-0.097,6.68v0.681h-0.313
	c-0.494,0-0.938,0.309-1.077,0.79v0.251h0.052c0,0.556,0.475,1.042,1.059,1.042h13.542v-2.847h0.764V27.056z M179.667,20.806v1.944
	l-2.639-0.972L179.667,20.806z M186.889,22.75h-6.597v-0.694h6.597V22.75z M186.889,21.431h-6.597v-0.625h6.597V21.431z
	 M187.954,22.75h-0.44v-1.944h0.44c0.536,0,0.972,0.435,0.972,0.972S188.49,22.75,187.954,22.75z"/>
</svg>
