<?xml version="1.0" encoding="utf-8"?>
<!-- Generator: Adobe Illustrator 16.0.3, SVG Export Plug-In . SVG Version: 6.00 Build 0)  -->
<!DOCTYPE svg PUBLIC "-//W3C//DTD SVG 1.1//EN" "http://www.w3.org/Graphics/SVG/1.1/DTD/svg11.dtd">
<svg version="1.1" id="Layer_1" xmlns="http://www.w3.org/2000/svg" xmlns:xlink="http://www.w3.org/1999/xlink" x="0px" y="0px"
	 width="25px" height="19.204px" viewBox="113.769 0 25 19.204" enable-background="new 113.769 0 25 19.204" xml:space="preserve">
<g>
	<path fill="#FFFFFF" d="M113.769,0.39c1.311-0.223,3.15-0.39,5.742-0.39c2.62,0,4.487,0.502,5.742,1.505
		c1.198,0.948,2.006,2.509,2.006,4.349c0,1.839-0.613,3.4-1.728,4.459c-1.45,1.366-3.596,1.979-6.104,1.979
		c-0.557,0-1.059-0.028-1.449-0.083v6.717h-4.209V0.39z M117.978,8.919c0.362,0.084,0.808,0.112,1.421,0.112
		c2.258,0,3.651-1.143,3.651-3.066c0-1.728-1.198-2.759-3.317-2.759c-0.864,0-1.449,0.083-1.756,0.167V8.919L117.978,8.919z"/>
	<path fill="#FFFFFF" d="M129.208,15.218c0.781,0.474,2.397,1.031,3.651,1.031c1.282,0,1.813-0.446,1.813-1.143
		s-0.419-1.031-2.007-1.561c-2.815-0.948-3.902-2.48-3.875-4.097c0-2.536,2.175-4.459,5.547-4.459c1.589,0,3.011,0.362,3.847,0.78
		l-0.753,2.927c-0.613-0.335-1.783-0.781-2.954-0.781c-1.031,0-1.617,0.418-1.617,1.115c0,0.641,0.53,0.976,2.202,1.561
		c2.593,0.892,3.68,2.202,3.707,4.209c0,2.536-2.007,4.404-5.909,4.404c-1.783,0-3.372-0.39-4.403-0.948L129.208,15.218z"/>
</g>
</svg>
