<?xml version="1.0" encoding="utf-8"?>
<!-- Generator: Adobe Illustrator 16.0.3, SVG Export Plug-In . SVG Version: 6.00 Build 0)  -->
<!DOCTYPE svg PUBLIC "-//W3C//DTD SVG 1.1//EN" "http://www.w3.org/Graphics/SVG/1.1/DTD/svg11.dtd">
<svg version="1.1" id="Layer_1" xmlns="http://www.w3.org/2000/svg" xmlns:xlink="http://www.w3.org/1999/xlink" x="0px" y="0px"
	 width="20px" height="25.28px" viewBox="160.891 0 20 25.28" enable-background="new 160.891 0 20 25.28" xml:space="preserve">
<g>
	<g>
		<path fill="#FFFFFF" d="M163.412,0v6.393c0,1.911,0.725,2.883,2.01,2.883c1.318,0,2.043-0.923,2.043-2.883V0h2.504v6.228
			c0,3.427-1.73,5.059-4.63,5.059c-2.8,0-4.448-1.549-4.448-5.091V0H163.412z"/>
		<path fill="#FFFFFF" d="M177.992,11.105l-1.005-2.01c-0.412-0.774-0.676-1.351-0.988-1.994h-0.034
			c-0.229,0.643-0.51,1.219-0.855,1.994l-0.923,2.01h-2.867l3.212-5.619L171.434,0h2.884l0.972,2.026
			c0.33,0.675,0.576,1.22,0.84,1.846h0.034c0.263-0.708,0.477-1.203,0.757-1.846L177.86,0h2.866l-3.13,5.42l3.295,5.685H177.992
			L177.992,11.105z"/>
	</g>
	<path fill="#FFFFFF" d="M163.854,13.994v6.393c0,1.911,0.725,2.883,2.01,2.883c1.318,0,2.042-0.923,2.042-2.883v-6.393h2.505v6.228
		c0,3.427-1.73,5.059-4.63,5.059c-2.801,0-4.448-1.549-4.448-5.091v-6.195H163.854z"/>
	<path fill="#FFFFFF" d="M178.024,13.994v11.104h-2.521V13.994H178.024z"/>
</g>
</svg>
