<?xml version="1.0" encoding="utf-8"?>
<!-- Generator: Adobe Illustrator 16.0.3, SVG Export Plug-In . SVG Version: 6.00 Build 0)  -->
<!DOCTYPE svg PUBLIC "-//W3C//DTD SVG 1.1//EN" "http://www.w3.org/Graphics/SVG/1.1/DTD/svg11.dtd">
<svg version="1.1" id="Layer_1" xmlns="http://www.w3.org/2000/svg" xmlns:xlink="http://www.w3.org/1999/xlink" x="0px" y="0px"
	 width="25px" height="19.306px" viewBox="167.796 41 25 19.306" enable-background="new 167.796 41 25 19.306"
	 xml:space="preserve">
<path fill="#FFFFFF" d="M167.796,56.174c0,0.69,0.611,1.285,1.302,1.285h7.576c-0.035,0.518-0.184,1.682-0.823,2.847h8.889
	c-0.658-1.301-0.799-2.366-0.827-2.847h7.686c0.689,0,1.197-0.594,1.197-1.285v-1.215h-25V56.174z M180.313,55.444
	c0.447,0,0.811,0.363,0.811,0.811c0,0.448-0.363,0.81-0.811,0.81s-0.811-0.362-0.811-0.81
	C179.503,55.808,179.866,55.444,180.313,55.444z M191.599,41h-22.5c-0.691,0-1.302,0.525-1.302,1.215v11.979h25V42.215
	C192.796,41.525,192.288,41,191.599,41z M174.193,50.19h-1.153l-0.398-2.026c-0.091-0.475-0.168-0.915-0.224-1.453h-0.014
	c-0.083,0.531-0.161,0.978-0.272,1.453l-0.447,2.026h-1.167l-1.118-4.708h1.139l0.356,1.935c0.104,0.566,0.202,1.174,0.279,1.649
	h0.014c0.077-0.51,0.188-1.076,0.307-1.656l0.398-1.928h1.131l0.378,1.984c0.104,0.552,0.181,1.055,0.251,1.579h0.014
	c0.07-0.524,0.174-1.076,0.272-1.635l0.384-1.928h1.083L174.193,50.19z M181.13,50.19h-1.152l-0.398-2.026
	c-0.091-0.475-0.167-0.915-0.224-1.453h-0.014c-0.083,0.531-0.16,0.978-0.272,1.453l-0.447,2.026h-1.167l-1.118-4.708h1.139
	l0.356,1.935c0.105,0.566,0.203,1.174,0.28,1.649h0.014c0.077-0.51,0.188-1.076,0.308-1.656l0.398-1.928h1.132l0.377,1.984
	c0.104,0.552,0.182,1.055,0.251,1.579h0.015c0.069-0.524,0.174-1.076,0.271-1.635l0.384-1.928h1.083L181.13,50.19z M188.068,50.19
	h-1.153l-0.397-2.026c-0.092-0.475-0.168-0.915-0.224-1.453h-0.014c-0.084,0.531-0.161,0.978-0.272,1.453l-0.448,2.026h-1.166
	l-1.118-4.708h1.139l0.356,1.935c0.104,0.566,0.203,1.174,0.279,1.649h0.014c0.078-0.51,0.188-1.076,0.308-1.656l0.398-1.928h1.132
	l0.378,1.984c0.104,0.552,0.181,1.055,0.251,1.579h0.014c0.07-0.524,0.175-1.076,0.272-1.635l0.385-1.928h1.083L188.068,50.19z
	 M190.563,50.267h-0.007c-0.356,0-0.614-0.272-0.614-0.643c0-0.377,0.258-0.65,0.629-0.65c0.369,0,0.621,0.266,0.621,0.65
	C191.191,49.995,190.939,50.267,190.563,50.267z"/>
</svg>
