<?xml version="1.0" encoding="utf-8"?>
<!-- Generator: Adobe Illustrator 16.0.3, SVG Export Plug-In . SVG Version: 6.00 Build 0)  -->
<!DOCTYPE svg PUBLIC "-//W3C//DTD SVG 1.1//EN" "http://www.w3.org/Graphics/SVG/1.1/DTD/svg11.dtd">
<svg version="1.1" id="Layer_1" xmlns="http://www.w3.org/2000/svg" xmlns:xlink="http://www.w3.org/1999/xlink" x="0px" y="0px"
	 width="25px" height="19.805px" viewBox="-351.2 27.627 25 19.805" enable-background="new -351.2 27.627 25 19.805"
	 xml:space="preserve">
<path fill="#FFFFFF" d="M-328.784,36.765v-3.073l-2.679,1.537L-328.784,36.765z M-348.357,40.942c0,0.582,0.474,1.054,1.054,1.054
	c0.582,0,1.056-0.473,1.056-1.054c0-0.582-0.474-1.055-1.056-1.055C-347.883,39.887-348.357,40.36-348.357,40.942z M-331.153,40.942
	c0,0.582,0.474,1.054,1.055,1.054c0.582,0,1.055-0.473,1.055-1.054c0-0.582-0.474-1.055-1.055-1.055
	C-330.68,39.887-331.153,40.36-331.153,40.942z M-342.622,40.942c0,0.582,0.473,1.054,1.054,1.054s1.055-0.473,1.055-1.054
	c0-0.582-0.474-1.055-1.055-1.055S-342.622,40.36-342.622,40.942z M-348.616,37.086h10.339v-3.716h-10.339V37.086z M-326.939,27.627
	h-23.522c-0.408,0-0.739,0.331-0.739,0.738v1.708h25v-1.708C-326.2,27.958-326.531,27.627-326.939,27.627z M-349.3,29.261h-0.75
	v-0.75h0.75V29.261z M-347.888,29.261h-0.75v-0.75h0.75V29.261z M-346.568,29.261h-0.75v-0.75h0.75V29.261z M-335.924,33.692v3.073
	l2.68-1.537L-335.924,33.692z M-330.003,33.371h-4.701l2.35,1.347L-330.003,33.371z M-335.833,41.996
	c0.582,0,1.055-0.473,1.055-1.054c0-0.582-0.473-1.055-1.055-1.055c-0.581,0-1.055,0.473-1.055,1.055
	C-336.888,41.523-336.414,41.996-335.833,41.996z M-334.704,37.086h4.701l-2.351-1.347L-334.704,37.086z M-351.2,46.693
	c0,0.408,0.331,0.739,0.739,0.739h23.522c0.408,0,0.739-0.331,0.739-0.739v-15.87h-25V46.693z M-336.809,32.485h8.911v5.487h-8.911
	V32.485z M-328.158,40.942c0,1.07-0.871,1.94-1.94,1.94c-1.07,0-1.941-0.871-1.941-1.94c0-1.07,0.871-1.94,1.941-1.94
	C-329.028,39.001-328.158,39.872-328.158,40.942z M-335.833,39.001c1.07,0,1.941,0.87,1.941,1.94c0,1.07-0.871,1.94-1.941,1.94
	c-1.07,0-1.94-0.871-1.94-1.94C-337.773,39.872-336.903,39.001-335.833,39.001z M-349.502,32.485h12.111v5.487h-12.111V32.485z
	 M-339.627,40.942c0,1.07-0.871,1.94-1.94,1.94c-1.07,0-1.941-0.871-1.941-1.94c0-1.07,0.871-1.94,1.941-1.94
	C-340.498,39.001-339.627,39.872-339.627,40.942z M-345.362,40.942c0,1.07-0.871,1.94-1.941,1.94c-1.069,0-1.94-0.871-1.94-1.94
	c0-1.07,0.871-1.94,1.94-1.94C-346.232,39.001-345.362,39.872-345.362,40.942z M-349.69,43.562h21.979v0.75h-21.979V43.562z
	 M-349.69,45.159h21.979v0.749h-21.979V45.159z"/>
</svg>
