<?xml version="1.0" encoding="utf-8"?>
<!-- Generator: Adobe Illustrator 16.0.3, SVG Export Plug-In . SVG Version: 6.00 Build 0)  -->
<!DOCTYPE svg PUBLIC "-//W3C//DTD SVG 1.1//EN" "http://www.w3.org/Graphics/SVG/1.1/DTD/svg11.dtd">
<svg version="1.1" id="Layer_1" xmlns="http://www.w3.org/2000/svg" xmlns:xlink="http://www.w3.org/1999/xlink" x="0px" y="0px"
	 width="99.254px" height="99.999px" viewBox="129.034 -3.295 99.254 99.999" enable-background="new 129.034 -3.295 99.254 99.999"
	 xml:space="preserve">
<path fill="#FF8583" d="M223.974,27.097c-0.229-0.647,0.098-1.651-0.214-2.286c-0.309-0.635-1.772-0.696-2.12-1.297
	c-0.346-0.61-1.41-0.746-1.791-1.328c-0.386-0.586,0.928-2.356,0.519-2.917c-0.412-0.564-2.019-0.247-2.447-0.793
	c-0.435-0.546-1.183-0.821-1.636-1.355c-0.409-0.483-1.338-0.503-1.85-0.896l-31.846,26.852l27.868-32.927
	c-0.155-0.064-0.293-0.144-0.386-0.261c-0.375-0.496-0.944-0.711-1.352-1.17c-0.412-0.47-0.388-1.172-0.836-1.584
	c-0.458-0.415,0.192-2.253-0.32-2.592c-0.513-0.34-1.672,0.337-2.219,0.046c-0.539-0.289-0.596-1.644-1.162-1.894
	c-0.563-0.25-1.541,0.445-2.119,0.229c-0.576-0.22-0.717-1.729-1.303-1.925c-0.582-0.199-1.425,0.334-2.011,0.146
	c-0.593-0.187-1.755,1.453-2.341,1.27c-0.59-0.189-0.742-1.756-1.321-1.949c-0.583-0.191-1.502,0.562-2.088,0.355
	c-0.573-0.205-0.546-2.15-1.132-2.356c-0.58-0.203-1.239-0.229-1.825-0.423c-0.586-0.192-1.433,0.398-2.022,0.228
	c-0.596-0.172-1.258-0.014-1.858-0.156c-0.603-0.142-1.031-1.184-1.636-1.28c-0.61-0.094-1.334,0.813-1.95,0.777
	c-0.61-0.037-1.156,0.244-1.776,0.276c-0.609,0.033-1.135,0.277-1.75,0.366c-0.605,0.085-1.531-1.664-2.14-1.542
	c-0.603,0.121-1.277,0.093-1.88,0.238c-0.598,0.139-1.272,0.046-1.871,0.195c-0.598,0.148-0.727,2.215-1.323,2.36
	c-0.606,0.142-1.206,0.374-1.807,0.493c-0.591,0.121-0.952,0.85-1.531,1.013c-0.578,0.162-1.813-1.799-2.383-1.603
	c-0.563,0.202-0.843,1.231-1.401,1.46c-0.554,0.226-1.066,0.556-1.619,0.804c-0.545,0.244-1.294,0.073-1.84,0.334
	c-0.54,0.256-1.346-0.009-1.891,0.256c-0.539,0.264-0.607,1.501-1.152,1.767c-0.632,0.308-0.673,1.736-1.29,2.057
	c-0.623,0.323-2.325-1.363-2.931-1.024c-0.61,0.345-0.439,2.019-1.03,2.385c-0.598,0.369-0.879,1.146-1.453,1.538
	c-0.58,0.396-2.333-0.844-2.887-0.419c-0.554,0.422,0.237,2.5-0.293,2.957c-0.464,0.4-2.119-0.646-2.617-0.269
	c-0.491,0.368-0.363,1.584-0.87,1.942c-0.505,0.357-0.783,1.033-1.288,1.392c-0.506,0.36-1.053,0.623-1.544,0.995
	c-0.495,0.378-1.4,0.217-1.865,0.617c-0.471,0.414-0.155,1.556-0.573,2.005c-0.423,0.455-1.808,0.076-2.156,0.583
	c-0.351,0.513,0.349,1.575,0.088,2.139c-0.256,0.559-0.271,1.102-0.462,1.694c-0.188,0.586-1.125,0.926-1.27,1.533
	c-0.145,0.602-1.616,0.928-1.74,1.537c-0.125,0.61-0.342,1.19-0.471,1.796c-0.128,0.61,2.276,1.807,2.124,2.403
	c-0.152,0.607-1.262,0.995-1.466,1.572c-0.232,0.659,0.311,1.534,0.107,2.196c-0.205,0.665-1.753,0.929-1.926,1.596
	c-0.175,0.674-0.813,1.257-0.957,1.936c-0.146,0.676-0.799,1.306-0.914,1.991c-0.111,0.682,1.428,1.624,1.346,2.318
	c-0.084,0.685-1.785,1.23-1.842,1.929c-0.047,0.604,0.459,1.221,0.385,1.828c-0.077,0.598,0.611,1.298,0.525,1.903
	c-0.084,0.603,0.735,1.323,0.654,1.925c-0.078,0.606-2.505,0.952-2.56,1.558c-0.058,0.607,0.81,1.332,0.793,1.938
	c-0.019,0.608,0.61,1.221,0.651,1.83c0.037,0.603-0.843,1.372-0.729,1.971c0.113,0.597,1.888,0.829,2.039,1.422
	c0.148,0.587-1.826,1.796-1.645,2.38c0.18,0.58,0.927,1.025,1.135,1.604c0.205,0.571,2.043,0.524,2.271,1.096
	c0.225,0.564,0.137,1.24,0.381,1.802c0.244,0.558-1.354,1.965-1.094,2.519c0.256,0.551,0.589,1.101,0.857,1.649
	c0.269,0.547,1.283,0.754,1.574,1.287c0.293,0.537,1.219,0.717,1.531,1.234c0.313,0.523,1.005,0.789,1.338,1.297
	c0.334,0.508-0.238,1.637,0.112,2.132c0.354,0.494,1.351,0.522,1.719,1.001c0.371,0.482,0.671,1.014,1.056,1.479
	c0.387,0.472,0.666,1.03,1.063,1.485c0.401,0.455,0.516,1.205,0.947,1.623c0.438,0.42,0.357,1.498,0.818,1.885
	c0.461,0.389,1.595,0.004,2.074,0.365c0.481,0.365,1.692-0.301,2.188,0.045c0.496,0.345,0.067,2.047,0.569,2.377
	c0.504,0.336,1.762-0.485,2.267-0.159c0.508,0.329,0.643,1.23,1.143,1.563c0.586,0.386,1.498,0.235,2.093,0.604
	c0.597,0.365,1.416,0.294,2.019,0.641c0.608,0.346,0.757,1.482,1.378,1.803c0.62,0.319,0.63,1.952,1.266,2.244
	c0.635,0.29,1.648-0.193,2.299,0.063c0.646,0.256,1.697-0.612,2.364-0.392c0.574,0.19,0.634,1.872,1.208,2.084
	c0.572,0.207,1.195,0.269,1.766,0.483s1.177,0.362,1.753,0.571c0.575,0.207,1.317-0.043,1.899,0.145
	c0.583,0.186,1.35-0.316,1.938-0.164c0.594,0.151,0.842,2.049,1.444,2.15c0.603,0.103,1.433-1.344,2.043-1.309
	c0.609,0.039,1.218,0.745,1.83,0.715c0.606-0.026,1.086-1.336,1.694-1.414c0.603-0.075,1.123-0.354,1.728-0.467
	c0.599-0.11,1.261,0.219,1.858,0.086c0.076-0.018,0.149-0.063,0.224-0.1c1.367-3.296,4.556-12.959,2.047-26.813
	c4.65,14.772,5.066,23.041,4.92,26.576c0.064,0.004,0.135,0.004,0.201-0.007c0.596-0.098,1.008-1.452,1.611-1.543
	c0.604-0.093,1.415,1.111,2.021,1.013c0.606-0.1,1.227-0.23,1.827-0.354c0.602-0.123,1.44,0.5,2.035,0.342
	c0.594-0.158,0.646-2.169,1.222-2.377c0.571-0.208,1.024-0.549,1.581-0.82c0.553-0.273,0.771-0.854,1.275-1.205
	c0.498-0.354,2.035,0.615,2.489,0.207c0.458-0.408-0.375-2.129,0.056-2.573c0.418-0.441,1.156-0.56,1.565-1.019
	c0.405-0.459,0.606-1.104,1.01-1.56c0.415-0.459,1.022-0.78,1.44-1.215c0.438-0.444,2.242,0.623,2.701,0.228
	c0.526-0.453-0.102-2.209,0.391-2.675c0.503-0.479,1.438-0.513,1.91-1.004c0.473-0.498,1.343-0.668,1.791-1.185
	c0.455-0.516,1.084-0.937,1.514-1.477c0.426-0.534,0.287-1.538,0.699-2.095c0.404-0.55,0.702-1.188,1.093-1.763
	c0.343-0.5,0.899-0.817,1.278-1.299c0.382-0.471,0.079-1.521,0.479-1.979c0.399-0.461,1.584-0.249,1.983-0.708
	c0.399-0.461,1.294-0.542,1.679-1.014c0.387-0.476,0.211-1.449,0.559-1.944c0.352-0.503,0.513-1.163,0.8-1.697
	c0.286-0.534-0.57-1.517-0.366-2.095c0.205-0.577,0.04-1.115,0.171-1.709c0.132-0.594,0.073-1.094,0.152-1.7
	c0.077-0.603,1.758-1.013,1.795-1.625c0.04-0.606,0.909-1.199,0.928-1.81c0.021-0.607-1.063-1.248-1.053-1.857
	c0.015-0.609-0.388-1.232-0.366-1.839c0.023-0.613,0.189-1.229,0.234-1.834c0.059-0.696,0.541-1.363,0.537-2.046
	c-0.006-0.693,1.236-1.501,1.176-2.188c-0.053-0.687-1.801-1.221-1.898-1.907c-0.095-0.679-0.592-1.283-0.714-1.967
	c-0.116-0.678,0.431-1.476,0.3-2.159c-0.133-0.671,0.072-1.416-0.056-2.101c-0.132-0.682-0.089-1.382-0.199-2.069
	c-0.112-0.685-1.184-1.214-1.294-1.904c-0.111-0.684,0.768-1.55,0.635-2.234c-0.134-0.68,0.346-1.559,0.172-2.235
	C225.067,28.307,224.214,27.757,223.974,27.097z M201.233,28.562l1.154-0.975l-0.098,0.084c1.678,1.938,3.484,3.444,4.406,5.481
	c0.451,0.986,1.261,1.771,1.715,2.632c0.943,1.782,0.771,3.857,1.035,5.469c0.22,1.315,0.717,2.956,0.326,4.753
	c-0.27,1.221-1.654,2.327-1.785,3.671c-0.049,0.513-0.064,1.013-0.07,1.509c-0.073-0.658-0.154-1.326-0.207-2.001
	c-0.064-0.766,0.439-1.575,0.402-2.365c-0.067-1.99-0.662-4.161-1.281-6.224c-0.188-0.62-0.432-0.546-0.617-1.167
	c-0.863-2.887-2.285-4.791-3.418-6.645c-0.521-0.859-0.391-2.067-0.836-2.991C201.747,29.355,201.497,28.949,201.233,28.562z
	 M194.276,34.429l-1.188,0.998c0.155,0.162,0.314,0.322,0.454,0.496c0.376,0.473,0.774,0.92,1.166,1.344
	c0.745,0.821,1.446,1.595,1.795,2.383c0.271,0.623,0.306,1.521,0.343,2.524c0.023,0.711,0.051,1.448,0.17,2.22
	c0.27,1.692,0.317,3.105,0.158,4.59c-0.082,0.783-0.061,1.536-0.035,2.299c0.032,0.956,0.061,1.853-0.185,2.506
	c-0.336,0.891-1.011,1.751-1.733,2.667c-0.326,0.418-0.662,0.849-0.979,1.294c-0.284,0.4-0.563,0.816-0.83,1.229
	c-0.668,1.014-1.301,1.974-2.042,2.592c-0.741,0.615-1.782,1.05-2.888,1.511c-0.457,0.192-0.937,0.392-1.399,0.608
	c-0.718,0.332-1.505,0.606-2.378,0.844l0.287,0.665l-1.532-3.521l0.195,0.452c0.083-0.023,0.171-0.049,0.254-0.07
	c1.192-0.328,2.219-0.781,3.427-1.477c0.432-0.249,0.867-0.561,1.364-0.771c0.735-0.319,1.685-0.313,2.225-0.856
	c0.623-0.618,0.992-1.501,1.397-2.306c0.178-0.361,0.4-0.707,0.604-1.069c0.577-0.99,0.471-2.185,0.771-3.32
	c0.049-0.188,0.358-0.11,0.407-0.299c0.08-0.293,0.353-0.524,0.449-0.865c0.274-0.896,0.514-1.88,0.51-2.855
	c-0.016-1.262-0.402-2.425-0.78-3.777c-0.138-0.485-0.138-1.016-0.218-1.497c-0.146-0.862-0.405-1.644-0.809-2.307
	c-0.527-0.88-1.34-1.685-2.091-2.385c-0.284-0.264-0.211-0.342-0.487-0.605c-0.041-0.037-0.07-0.078-0.104-0.118l-0.464,0.391
	L194.276,34.429z M181.884,42.482l-0.729,1.018l0.052-0.07c0-0.088-0.009-0.167-0.073-0.2c-0.289-0.159-0.658-0.187-0.979-0.256
	c-0.317-0.069-0.641,0.053-0.908,0.079c-0.085,0.008-0.193-0.163-0.291-0.159c-0.337,0.015-0.671,0.182-0.973,0.276
	c-0.078,0.024-0.029,0.183-0.11,0.21c-0.433,0.131-0.765,0.212-1.065,0.398c-0.093,0.058-0.326-0.171-0.435-0.118
	c-0.229,0.114-0.571,0.301-0.774,0.521c-0.216,0.226-0.229,0.647-0.324,0.905c-0.037,0.096,0.231,0.34,0.182,0.438
	c-0.186,0.346-0.281,0.647-0.366,1.013c-0.022,0.091-0.427,0.087-0.459,0.192c-0.075,0.252,0.278,0.569,0.29,0.891
	c0.016,0.423-0.199,0.858-0.102,1.172c0.109,0.351,0.267,0.724,0.486,1.067c0.197,0.31,0.332,0.684,0.592,0.917
	c0.045,0.041-0.012,0.101,0.033,0.139c0.327,0.296,0.803,0.342,1.114,0.503c0.116,0.058,0.097,0.093,0.208,0.156
	c0.24,0.134,0.594,0.085,0.906,0.153c0.324,0.072,0.638,0.45,0.943,0.422c0.246-0.012,0.229-0.334,0.476-0.342
	c0.271,0.004,0.514-0.191,0.827-0.289c0.304-0.097,0.406-0.293,0.617-0.463c0.08-0.063,0.356,0.125,0.445,0.072
	c0.317-0.195,0.346-0.675,0.619-0.971c0.076-0.079,0.214-0.148,0.293-0.212c0.18-0.154,0.516-0.172,0.668-0.453
	c0.153-0.284,0.446-0.525,0.479-0.755c0.027-0.151-0.211-0.197-0.18-0.347c0.086-0.375,0.359-0.72,0.342-1.115
	c0-0.125,0.131-0.121,0.131-0.243c0-0.271-0.545-0.514-0.649-0.839c-0.112-0.371-0.079-0.752-0.299-1.095
	c-0.058-0.096-0.231-0.125-0.296-0.256c-0.064-0.128-0.047-0.34-0.049-0.541l-1.344,1.059c-0.029,0.08-0.055,0.165-0.033,0.21
	c0.074,0.146,0.367,0.18,0.457,0.33c0.162,0.252,0.008,0.549,0.067,0.76c0.03,0.099-0.106,0.209-0.106,0.399
	c0,0.188,0.56,0.179,0.563,0.366c0.01,0.272-0.205,0.464-0.244,0.618c-0.019,0.09,0.106,0.209,0.096,0.301
	c-0.014,0.053-0.397-0.019-0.406,0.038c-0.021,0.114,0.434,0.491,0.414,0.537c-0.029,0.037-0.496-0.171-0.566-0.118
	c-0.125,0.105-0.165,0.333-0.287,0.459c-0.189,0.203-0.293,0.415-0.496,0.542c-0.146,0.093-0.392,0.06-0.531,0.177
	c-0.064,0.05-0.094,0.172-0.139,0.197c-0.087,0.023-0.229,0.186-0.395,0.186c-0.107,0-0.217-0.064-0.333-0.06
	c-0.095,0.006-0.218-0.293-0.335-0.282c-0.159,0.012-0.276,0.032-0.374,0.009c-0.089-0.02-0.244,0.06-0.455-0.058
	c-0.073-0.044-0.31,0.209-0.38,0.172c-0.189-0.095-0.438-0.253-0.658-0.452c-0.059-0.053,0.203-0.342,0.145-0.392
	c-0.179-0.157-0.679-0.023-0.76-0.154c-0.146-0.227,0.028-0.623-0.041-0.842c-0.068-0.219-0.13-0.493-0.137-0.729
	c-0.005-0.064,0.223-0.157,0.261-0.284c0.037-0.119,0.157-0.239,0.188-0.374c0.056-0.24-0.1-0.496,0.015-0.713
	c0.088-0.162,0.194-0.33,0.261-0.513c0.031-0.078-0.111-0.308-0.113-0.313c0.037-0.034,0.377,0.243,0.476,0.195
	c0.142-0.07,0.146-0.435,0.276-0.518c0.179-0.11,0.332-0.397,0.632-0.491c0.081-0.024,0.04,0.252,0.182,0.299
	c0.212-0.067,0.474,0.053,0.624,0.045c0.118-0.004,0.195-0.618,0.313-0.627c0.146-0.015,0.363,0.293,0.442,0.31
	c0.122,0.028,0.474-0.159,0.632-0.085l-2.377,3.313l5.131-4.038l0.783-0.664c0.006,0.004,0.014,0.009,0.014,0.014
	c0.195,0.183,0.563,0.313,0.75,0.647c0.082,0.151,0.26,0.256,0.349,0.401c0.224,0.371,0.392,0.847,0.556,1.42
	c0.033,0.124-0.074,0.156-0.039,0.282c0.131,0.438-0.067,0.845-0.06,1.207c0.01,0.554,0.373,1.07,0.26,1.515
	c-0.112,0.439-0.192,1.062-0.444,1.501c-0.102,0.189-0.482,0.308-0.742,0.541c-0.161,0.139-0.385,0.228-0.543,0.383
	c-0.354,0.356-0.735,0.603-1.172,0.854c-0.27,0.157-0.369,0.548-0.604,0.73c-0.188,0.148-0.53,0.11-0.649,0.144
	c-0.156,0.042-0.408-0.155-0.695-0.183c-0.26-0.024-0.555,0.117-0.825,0.119c-0.429,0.002-0.812-0.227-1.408-0.379
	c-0.146-0.037-0.11,0.324-0.334,0.381c-0.407-0.102-0.991-0.148-1.31-0.321c-0.168-0.093-0.133-0.56-0.322-0.655
	c-0.336-0.166-0.919,0.037-1.094-0.134c-0.223-0.21-0.379-0.69-0.586-1.054c-0.209-0.345-0.268-0.31-0.477-0.65
	c-0.224-0.354-0.426-0.793-0.516-1.1c-0.038-0.133,0.486-0.439,0.513-0.751c0.024-0.261-0.383-0.559-0.386-0.834
	c-0.01-0.569,0.165-1.021,0.279-1.47c0.068-0.271,0.342-0.467,0.545-0.798c0.086-0.142,0.221-0.264,0.297-0.398
	c0.049-0.085-0.108-0.174-0.061-0.256c0.239-0.427,0.411-0.802,0.676-1.069c0.158-0.159,0.351-0.281,0.5-0.447
	c0.225-0.258,0.297-0.673,0.479-0.778c0.122-0.07,0.48,0.127,0.757,0.083c0.269-0.038,0.601,0.067,0.884-0.009
	c0.533-0.143,0.91-0.386,1.381-0.391c0.293,0,0.586-0.094,0.879-0.134c0.254-0.037,0.59-0.369,0.728-0.334
	c0.244,0.061,0.644,0.208,0.952,0.398c0.033,0.018,0.07,0.033,0.098,0.05L181.884,42.482z M185.263,38.487
	c-0.435-0.348-0.883-0.717-1.367-0.888c-0.613-0.212-1.42,0.166-2.101,0.146c-0.253-0.009-0.497-0.362-0.757-0.383
	c-0.747-0.053-1.576,0.18-2.305,0.313c-0.221,0.041-0.189,0.22-0.409,0.259c-1.062,0.192-1.728,0.704-2.455,1.039
	c-0.304,0.142-0.683,0.157-0.984,0.264c-0.577,0.2-1.013,0.482-1.456,0.854c-0.443,0.366-0.955,0.633-1.232,1.172
	c-0.164,0.32-0.311,0.627-0.506,0.902c-0.524,0.746-1.142,1.446-1.452,2.295c-0.099,0.262-0.007,0.595-0.118,0.848
	c-0.255,0.58-0.285,1.199-0.34,1.834c-0.085,0.968-0.396,1.998-0.258,2.768c0.15,0.833,0.459,1.771,0.88,2.657
	c0.342,0.719,0.842,1.427,1.351,2.006c0.125,0.141,0.549-0.232,0.671-0.09c0.687,0.793,1.175,1.476,1.849,1.932
	c0.194,0.13,0.312,0.38,0.531,0.545c0.536,0.393,1.122,0.764,1.746,0.979c0.635,0.223,1.355-0.078,2.039-0.051
	c0.239,0.01,0.483,0.106,0.719,0.124c0.258,0.021,0.508,0.194,0.762,0.225c0.65,0.084,1.285,0.098,1.943-0.021
	c0.58-0.104,0.932-0.557,1.426-0.871c0.277-0.182,0.771-0.036,1.074-0.179c0.787-0.366,1.455-0.852,2.213-1.484
	c0.269-0.221,0.49-0.484,0.789-0.679c0.479-0.312,1.221-0.421,1.555-0.891c0.365-0.518,0.238-1.318,0.434-1.96
	c0.073-0.25,0.073-0.543,0.171-0.799c0.277-0.759,0.595-1.454,0.665-2.284c0.016-0.139-0.064-0.144-0.049-0.282
	c0.016-0.215,0.049-0.427,0.082-0.667c0.072-0.651,0.495-1.379,0.373-2.066c-0.162-0.879-0.656-1.665-1.081-2.548
	c-0.146-0.31-0.399-0.558-0.513-0.886c-0.195-0.562-0.405-1.143-0.781-1.575c-0.27-0.313-0.586-0.595-0.921-0.859l-1.14,0.961
	c0.326,0.316,0.596,0.684,0.84,0.96c0.181,0.21,0.396,0.603,0.547,1.038c0.121,0.358,0.244,0.732,0.421,1.099
	c0.368,0.776,0.302,1.504,0.431,2.212c0.082,0.456,0.188,0.879,0.115,1.479c-0.03,0.238,0.104,0.495,0.083,0.72
	c-0.017,0.146-0.017,0.146-0.024,0.292c-0.063,0.771-0.164,1.359-0.369,1.917c-0.109,0.281-0.299,0.542-0.402,0.863
	c-0.149,0.508-0.271,0.938-0.491,1.248c-0.162,0.225-0.562,0.262-0.952,0.518c-0.316,0.205-0.412,0.766-0.738,1.041
	c-0.649,0.542-1.392,0.615-2.051,0.92c-0.406,0.188-0.727,0.525-1.035,0.725c-0.375,0.244-0.641,0.627-0.912,0.676
	c-0.424,0.078-0.998,0.313-1.557,0.244c-0.271-0.035-0.533-0.183-0.818-0.203c-0.256-0.018-0.517,0.109-0.77,0.102
	c-0.592-0.023-1.131-0.41-1.549-0.557c-0.404-0.143-0.844-0.453-1.34-0.818c-0.206-0.15-0.293-0.488-0.504-0.63
	c-0.553-0.375-1.209-0.685-1.801-1.369c-0.129-0.146-0.306,0.008-0.433-0.14c-0.459-0.522-0.502-1.272-0.754-1.793
	c-0.365-0.762-0.589-1.444-0.716-2.144c-0.122-0.673-0.166-1.477-0.102-2.26c0.035-0.378-0.31-0.957-0.095-1.443
	c0.122-0.276,0.406-0.49,0.517-0.786c0.265-0.72,0.726-1.318,1.172-1.948c0.258-0.363,0.416-0.778,0.6-1.135
	c0.195-0.383,0.182-1.027,0.381-1.192c0.229-0.195,0.793-0.322,1.257-0.485c0.351-0.122,0.749-0.114,1.099-0.276
	c0.599-0.281,1.291-0.557,2.218-0.725c0.22-0.04,0.221-0.256,0.464-0.256c0.659-0.119,1.295,0.167,1.855,0.205
	c0.287,0.023,0.574-0.012,0.864-0.001c0.573,0.02,1.15-0.06,1.538,0.073c0.27,0.098,0.5,0.346,0.744,0.615l0.586-0.688l-1.893,2.238
	l0.83-0.984c-0.119-0.014-0.24-0.017-0.342-0.078c-0.396-0.247-0.803-0.684-1.281-0.806c-0.435-0.113-0.918,0.412-1.346,0.473
	c-0.211,0.032-0.443,0.162-0.668,0.162c-0.615,0.009-1.236-0.334-1.898-0.154c-0.221,0.06-0.35,0.536-0.584,0.569
	c-0.404,0.058-0.791-0.009-1.174,0.208c-0.4,0.235-0.617,0.595-0.922,0.94c-0.119,0.138-0.291,0.244-0.428,0.382
	c-0.418,0.421-1.099,0.612-1.376,1.111c-0.047,0.082,0.326,0.293,0.281,0.378c-0.073,0.126-0.284,0.167-0.366,0.305
	c-0.24,0.395-0.626,0.793-0.752,1.288c-0.156,0.621-0.243,1.26-0.23,1.949c0.006,0.22,0.166,0.419,0.142,0.684
	c-0.037,0.415-0.043,0.867,0.079,1.28c0.148,0.517,0.406,1.039,0.678,1.469c0.197,0.318,0.391,0.203,0.583,0.525
	c0.248,0.429,0.333,1.07,0.708,1.433c0.348,0.334,0.752,0.716,1.196,0.936c0.149,0.075,0.378-0.015,0.528,0.065
	c0.473,0.261,1.045,0.365,1.551,0.496c0.146,0.037,0.221-0.252,0.369-0.213c0.732,0.186,1.25,0.181,1.824,0.181
	c0.219-0.003,0.465-0.015,0.676,0.005c0.438,0.04,0.869,0.487,1.295,0.369c0.42-0.113,0.918-0.229,1.254-0.493
	c0.177-0.141,0.187-0.499,0.388-0.614c0.554-0.322,0.968-0.771,1.419-1.228c0.135-0.131,0.299-0.231,0.452-0.368
	c0.329-0.296,0.76-0.525,0.987-0.934c0.34-0.598,0.854-1.218,0.99-1.751c0.148-0.58-0.188-1.314-0.203-2.008
	c-0.008-0.575-0.262-1.068-0.433-1.649c-0.03-0.09,0.134-0.139,0.106-0.228c-0.204-0.705-0.366-1.309-0.668-1.807
	c-0.08-0.129-0.119-0.281-0.202-0.435c-0.195-0.351-0.567-0.632-0.903-0.937l-0.506,0.429l4.363-3.68
	c0.092,0.07,0.187,0.14,0.269,0.221c0.3,0.281,0.269,0.313,0.568,0.59c0.692,0.647,1.741,1.086,2.157,1.773
	c0.234,0.391,0.072,1.221,0.188,1.941c0.088,0.496-0.017,1.114,0.151,1.688c0.343,1.224,0.604,2.209,0.613,3.288
	c0.006,0.727-0.084,1.489-0.345,2.354c-0.089,0.308-0.269,0.595-0.348,0.906c-0.05,0.19,0.073,0.223,0.024,0.413
	c-0.279,1.07-0.554,1.982-1.018,2.775c-0.223,0.394-0.521,0.75-0.711,1.135c-0.363,0.713-0.717,1.315-1.145,1.741
	c-0.317,0.318-0.646,1.008-1.313,1.295c-0.497,0.21-1.333-0.217-1.847,0.079c-1.076,0.62-1.76,1.638-2.808,1.923
	c-0.579,0.157-1.114,0.24-1.651,0.464c-0.594,0.255-1.271-0.017-1.744-0.012c-0.676,0.006-1.438,0.201-2.288-0.063
	c-0.366-0.109-0.685-0.435-1.063-0.529c-0.357-0.092-0.81,0.212-1.172,0.134c-0.859-0.187-1.705-0.435-2.298-0.765
	c-0.583-0.328-0.842-1.256-1.501-1.94c-0.246-0.256-0.502-0.533-0.762-0.78c-0.715-0.688-1.808-1.189-2.498-2.344
	c-0.145-0.236,0.346-0.534,0.203-0.771c-0.537-0.879-1.156-1.584-1.399-2.434c-0.337-1.195-0.63-2.295-0.636-3.36
	c-0.012-1.013,0.006-2.312,0.305-3.445c0.155-0.583,0.628-1.152,1.1-1.86c0.23-0.343,0.532-0.673,0.748-1.045
	c0.574-0.989,0.827-2.211,1.638-3.02c0.452-0.452,0.975-0.777,1.305-1.213c0.411-0.546,1.015-0.793,1.388-1.006
	c0.432-0.249,0.973-0.76,1.799-0.897c0.492-0.083,0.984-0.125,1.483-0.26c0.949-0.256,2.035-0.342,3.431-0.354
	c0.321-0.001,0.338-0.14,0.67-0.114c0.992-0.009,1.969,0.078,2.799,0.292c0.398,0.098,0.806,0.165,1.195,0.246
	c0.84,0.174,1.739,0.259,2.295,0.569c0.024,0.015,0.049,0.044,0.073,0.058L185.263,38.487z M184.047,67.566
	c1.944,10.73,0.382,18.938-1.007,23.485c-2.563,0.599-4.999,1.095-7.257,0.958c-2.563-0.156-5.196-1.146-7.983-2.191
	c-1.085-0.41-2.205-0.829-3.34-1.206c-3.25-1.079-6.525-2.744-10.313-5.238c-0.49-0.324-0.983-0.644-1.479-0.964
	c-2.925-1.898-5.688-3.689-7.792-6.082c-2.785-3.167-5.006-6.43-6.607-9.705c-1.5-3.064-3.315-7.092-4.078-11.087
	c-0.443-2.329-0.077-4.917,0.311-7.655c0.188-1.317,0.381-2.677,0.488-4.061c0.308-3.894,1.086-7.571,2.388-11.238
	c0.613-1.733,0.972-3.511,1.321-5.232c0.488-2.425,0.949-4.715,2.031-6.294c1.16-1.698,3.186-3.12,5.326-4.626
	c1.312-0.923,2.67-1.875,3.941-2.968c2.551-2.2,5.576-4.104,9.808-6.175l1.863-0.913c3.021-1.477,5.978-2.855,8.951-3.45
	c1.262-0.253,2.512-0.566,3.723-0.867c2.878-0.712,5.599-1.387,8.038-1.237c2.854,0.172,5.945,1.267,8.934,2.321
	c0.873,0.308,1.735,0.613,2.59,0.897c0.798,0.265,1.617,0.525,2.441,0.783c3.076,0.967,6.264,1.968,8.684,3.563
	c1.113,0.732,2.097,1.855,3.061,3.137l-3.592,4.251c-0.105-0.061-0.217-0.118-0.314-0.188c-0.621-0.483-0.394-2.063-1.05-2.591
	c-2.209-1.777-4.821-3.357-7.235-4.37c-2.1-0.886-4.76-0.662-7.422-0.913c-1.067-0.104-2.09-1.077-3.191-1.231
	c-2.734-0.383-5.678,1.243-8.674,1.597c-0.907,0.104-0.902,0.136-1.811,0.244c-4.189,0.493-7.219,1.001-10.049,2.109
	c-1.344,0.528-2.816,0.778-4.179,1.163c-2.28,0.645-4.494,0.983-6.064,2.133c-1.487,1.091-2.245,3.098-3.403,5.046
	c-0.775,1.305-1.99,2.396-2.972,3.617c-2.194,2.722-4.313,5.464-5.729,8.671c-0.481,1.085-0.37,2.446-0.916,3.503
	c-1.152,2.22-2.388,4.204-2.718,6.399c-0.545,3.633-0.309,7.564,0.049,10.597c0.383,3.254,1.899,6.439,3.315,9.949
	c1.091,2.704,2.754,4.928,4.704,7.454c0.452,0.585-0.302,1.167,0.146,1.756c2.463,3.236,5.089,5.339,7.526,7.224
	c0.818,0.634,1.127,1.881,1.917,2.543c2.055,1.721,4.678,2.255,6.869,3.179c2.184,0.92,4.483,1.913,7.201,2.205
	c1.005,0.103,2.124-0.636,3.113-0.499c1.115,0.156,2.248,0.488,3.256,0.679c2.551,0.487,4.831,1.321,7.156,1.062
	c0.056-0.256,0.104-0.521,0.152-0.791c-0.063,0.015-0.129,0.047-0.191,0.055c-2.104,0.247-4.611-0.167-7.076-0.635
	c-1.006-0.191-2.09-0.579-3.244-0.742c-1.01-0.141-2.002-0.406-3.036-0.514c-2.586-0.274-5.013-0.812-6.981-1.642
	c-1.979-0.834-4.086-2.108-6.07-3.772c-0.785-0.652-1.285-1.705-2.12-2.353c-2.329-1.799-4.199-4.313-6.58-7.438
	c-0.472-0.621-1.05-0.178-1.526-0.793c-1.84-2.389-3.459-4.773-4.468-7.278c-1.364-3.378-2.147-6.714-2.515-9.831
	c-0.346-2.934-1.321-6.844-0.801-10.293c0.291-1.938,1.447-4.097,2.559-6.235c0.537-1.041,1.953-1.695,2.451-2.824
	c1.361-3.083,2.652-6.049,4.759-8.668c1.05-1.3,2.53-2.3,3.337-3.659c1.07-1.799,1.131-4.349,2.36-5.252
	c1.343-0.986,3.774-0.91,5.938-1.52c1.373-0.389,2.499-1.59,3.915-2.144c2.701-1.055,5.899-1.671,9.949-2.147
	c0.908-0.107,0.952,0.284,1.86,0.177c2.891-0.34,5.798-1.007,8.346-0.65c1.139,0.159,2.223,0.789,3.313,0.888
	c2.535,0.243,4.758,0.938,6.638,1.729c2.209,0.931,5.038,1.719,7.188,3.447c0.635,0.513,0.772,1.646,1.404,2.136
	c0.082,0.064,0.18,0.113,0.27,0.167l-7.683,9.077l0.847-0.998c-0.554-0.311-1.14-0.597-1.779-0.837
	c-0.995-0.378-1.842-1.05-2.799-1.578c-2.186-1.205-4.739-1.461-7.178-2.063c-0.818-0.204-1.623-0.5-2.404-0.746
	c-1.709-0.537-3.308-1.489-4.918-1.451c-2.635,0.066-5.512,0.63-7.6,1.256c-2.246,0.673-4.236,2.512-6.531,3.944
	c-1.781,1.111-3.121,2.632-4.623,4.28c-0.371,0.407-0.916-0.093-1.289,0.313c-1.971,2.131-3.334,4.178-4.362,6.132
	c-0.339,0.651-0.884,1.176-1.249,1.805c-0.954,1.66-0.989,3.583-1.367,5.258c-0.384,1.68-0.525,3.406-0.392,5.35
	c0.05,0.712-0.65,1.458-0.623,2.165c0.023,0.749,1.247,1.489,1.233,2.303c-0.023,1.874-0.18,3.485,0.313,5.12
	c0.406,1.358,1.288,2.345,2.333,3.625c0.643,0.789,0.528,2.164,1.069,3.056c1.24,2.037,2.754,3.85,4.716,5.728
	c0.754,0.721,1.319,1.527,2.002,2.356c1.019,1.242,2.652,1.555,3.862,2.223c1.393,0.769,2.701,1.915,4.479,2.242
	c0.88,0.162,1.604,0.548,2.399,0.743c2.088,0.514,4.242-0.688,6.658-0.755c0.389-0.009,0.411,0.769,0.801,0.76
	c0.65-0.017,1.291,0.301,1.941,0.306c1.123,0.008,2.163-0.301,3.188-0.662c-0.015-0.526-0.039-1.059-0.072-1.604
	c-0.982,0.369-1.995,0.711-3.105,0.7c-0.666-0.004-1.318-0.122-1.986-0.107c-0.412,0.012-0.441-1.053-0.854-1.041
	c-2.258,0.061-4.294,1.272-6.177,0.809c-0.839-0.207-1.458-1.317-2.373-1.483c-1.639-0.302-3.239-0.142-4.411-0.786
	c-0.948-0.523-2.177-1.248-3.149-2.429c-0.662-0.804-0.789-2.151-1.605-2.935c-1.863-1.78-3.395-3.213-4.561-5.127
	c-0.599-0.983-0.867-2.205-1.567-3.062c-0.92-1.127-1.685-1.97-2.002-3.027c-0.423-1.411-0.626-2.877-0.603-4.715
	c0.012-0.754-0.554-1.53-0.582-2.307c-0.028-0.725,0.568-1.494,0.52-2.222c-0.129-1.823-0.749-3.529-0.418-4.985
	c0.33-1.448,1.427-2.795,2.327-4.358c0.368-0.635,1.046-1.147,1.396-1.816c0.964-1.834,1.692-3.984,3.569-6.017
	c0.374-0.407,0.405-0.378,0.78-0.786c1.43-1.57,3.037-2.688,4.636-3.684c2.177-1.361,4.323-2.154,6.436-2.789
	c1.994-0.595,4.437-2.106,6.882-2.17c1.354-0.034,2.955,0.432,4.541,0.931c0.803,0.25,1.438,1.226,2.305,1.44
	c2.308,0.568,4.383,1.262,6.451,2.402c1.05,0.582,2.105,1.204,3.174,1.611c0.382,0.144,0.8,0.224,1.215,0.278l-2.005,2.374
	l0.536-0.63c-0.934-0.936-1.9-1.819-2.969-2.396c-1.035-0.562-2.394-0.9-3.791-1.042c-0.8-0.083-1.619,0.076-2.42-0.119
	c-1.904-0.464-3.809-0.476-6.021-0.43c-0.841,0.017-1.736,0.717-2.591,0.632c-1.32-0.128-2.467-0.847-3.574-0.526
	c-1.274,0.366-2.25,1.46-3.41,2.258c-0.548,0.378-1.013,0.985-1.609,1.347c-1.521,0.913-2.511,2.043-3.854,3.465
	c-0.224,0.233-1.188-0.685-1.412-0.45c-0.333,0.353,0.046,1.387-0.296,1.726c-0.046,0.044,0.044,0.138-0.001,0.183
	c-1.058,1.036-3.044,1.448-3.763,2.777c-0.941,1.746-0.563,3.932-1.074,6.117c-0.188,0.81-1.438,1.301-1.713,2.083
	c-0.457,1.294,0.402,2.698,0.447,3.861c0.061,1.581-0.175,3.3,0.351,4.909c0.137,0.415-0.319,1.005-0.192,1.411
	c0.131,0.431,1.01,0.644,1.149,1.128c0.459,1.587,1.017,3.152,1.839,4.463c0.729,1.16,1.857,2.026,3.052,3.044
	c0.472,0.401,0.537,1.289,1.005,1.729c1.199,1.119,3.206,1.203,4.756,2.042c0.463,0.249,0.261,0.622,0.725,0.875
	c2.168,1.169,3.857,1.952,5.588,2.374c0.771,0.188,1.709-0.051,2.501,0.228c1.323,0.464,2.369,0.72,3.56,0.694
	c1.127-0.02,2.354,0.331,3.584-0.221c0.119-0.052,0.24-0.104,0.355-0.153c-0.104-0.732-0.204-1.468-0.342-2.226
	c-0.375,0.004-0.727,0.035-1.025,0.168c-1.064,0.479-1.787,1.215-2.597,1.232c-0.909,0.018-1.854-0.493-3.103-0.931
	c-0.766-0.27-1.56-0.761-2.401-0.966c-1.599-0.392-3.22-0.68-5.267-1.782c-0.464-0.251-0.476-0.228-0.939-0.477
	c-1.457-0.788-2.661-1.651-3.723-2.644c-0.488-0.455-1.168-0.721-1.66-1.135c-1.096-0.938-2.234-1.666-2.836-2.625
	c-0.704-1.127-1.896-2.422-2.336-3.936c-0.129-0.459,0.309-1.074,0.172-1.52c-0.131-0.409-0.59-0.721-0.726-1.146
	c-0.493-1.509-1.268-3.178-1.317-4.545c-0.035-0.867,0.354-2.217,0.766-3.386c0.281-0.804,1.848-1.256,2.055-2.148
	c0.482-2.062,0.04-4.089,0.899-5.683c0.606-1.12,1.549-2.25,2.567-3.251c0.047-0.046,0.836,0.755,0.886,0.708
	c0.354-0.35,0.001-1.399,0.343-1.759c0.224-0.238,0.964,0.464,1.188,0.226c1.265-1.331,1.539-3.511,2.877-4.318
	c0.623-0.374,1.627-0.11,2.201-0.505c1.106-0.764,2.295-0.879,3.328-1.175c0.821-0.236,1.736-0.882,2.954-0.765
	c0.847,0.084,1.713,0.066,2.647,0.047c2.074-0.042,3.849,0.07,5.617,0.5c0.902,0.22,1.685,0.934,2.617,1.035
	c1.166,0.118,2.563-0.63,3.329-0.215c0.913,0.493,1.618,1.604,2.457,2.563l-2.065,2.445l-0.056-0.037
	c-0.342-0.249-0.678-0.508-1.034-0.785c-0.977-0.757-1.979-1.54-3.174-1.99c-1.554-0.586-3.109-0.822-4.975-1.001
	c-0.699-0.064-1.396-0.212-2.023-0.343c-1.127-0.232-2.191-0.452-3.162-0.281c-1.313,0.227-2.627,0.864-3.892,1.478l-0.976,0.461
	c-0.336,0.159-0.684,0.313-1.07,0.48c-1.257,0.56-2.559,1.135-3.557,1.965c-0.888,0.743-1.559,1.781-2.267,2.881
	c-0.276,0.431-0.569,0.877-0.875,1.313c-0.793,1.123-1.323,2.446-1.843,3.821l-0.305,0.814c-0.726,1.921-1.119,3.438-1.273,4.919
	c-0.066,0.632-0.195,1.265-0.322,1.877l0.766,0.157l-0.786-0.047c-0.235,1.146-0.456,2.229-0.3,3.222
	c0.146,0.948,0.703,1.845,1.301,2.809c0.374,0.601,0.762,1.227,1.054,1.888c0.691,1.565,1.546,2.978,2.62,4.312
	c0.355,0.441,0.679,0.9,0.993,1.348c0.708,1.006,1.376,1.956,2.292,2.62c1.463,1.059,3.246,1.797,4.637,2.321
	c1.499,0.566,3.189,0.94,5.031,1.115c1.441,0.135,2.861-0.121,4.355-0.394l0.728-0.129c0.372-0.066,0.714-0.14,1.056-0.212
	l-0.063-0.627L184.047,67.566z M182.601,65l-0.734,0.131c-1.389,0.254-2.704,0.491-3.934,0.376c-1.701-0.162-3.26-0.505-4.629-1.022
	c-1.3-0.488-2.957-1.172-4.271-2.125c-0.707-0.512-1.306-1.359-1.933-2.254c-0.337-0.473-0.68-0.961-1.057-1.429
	c-0.986-1.225-1.771-2.524-2.406-3.966c-0.337-0.761-0.772-1.462-1.167-2.093c-0.503-0.812-0.977-1.575-1.077-2.213
	c-0.109-0.715,0.084-1.665,0.293-2.668l0.021-0.111c0.133-0.65,0.269-1.322,0.342-2.026c0.142-1.343,0.505-2.742,1.183-4.535
	l0.308-0.815c0.479-1.274,0.967-2.498,1.655-3.47c0.32-0.452,0.626-0.92,0.912-1.369c0.644-0.996,1.252-1.939,1.953-2.525
	c0.83-0.692,2.033-1.225,3.227-1.751c0.359-0.159,0.717-0.319,1.064-0.482l0.99-0.465c1.172-0.572,2.385-1.158,3.486-1.35
	c0.681-0.121,1.604,0.07,2.585,0.276c0.626,0.128,1.399,0.293,2.187,0.366c1.736,0.165,3.178,0.383,4.568,0.908
	c0.975,0.366,1.848,1.045,2.796,1.779c0.329,0.26,0.668,0.516,1.011,0.765l-2.256,2.664c-0.089-0.047-0.188-0.088-0.269-0.137
	c-0.781-0.432-1.456-1.298-2.431-1.499c-0.365-0.076-0.896,0.498-1.277,0.403c-1.018-0.255-2.021-0.395-3.129-0.383
	c-0.323,0.001-0.326-0.545-0.65-0.543c-1.543,0.016-2.704,0.577-3.798,0.873c-0.447,0.119-0.937-0.019-1.468,0.075
	c-0.844,0.142-1.584,0.647-2.271,1.048c-0.667,0.383-1.161,0.97-1.656,1.628c-0.311,0.415-0.978,0.526-1.347,0.896
	c-0.913,0.913-1.729,1.961-2.376,3.081c-0.197,0.345,0.067,0.967-0.172,1.331c-0.496,0.743-1.534,1.289-1.758,2.147
	c-0.354,1.324-0.24,2.862-0.23,3.979c0.012,1.213,0.333,2.519,0.708,3.858c0.306,1.073,0.91,2.049,1.532,3.067
	c0.116,0.19,0.053,0.229,0.167,0.423c0.769,1.275,1.479,2.319,2.308,3.117c0.243,0.232,0.869,0.096,1.166,0.407
	c0.685,0.708,1.133,1.506,1.934,1.95c0.811,0.451,1.676,0.994,2.621,1.199c0.343,0.072,0.781-0.267,1.119-0.181
	c0.354,0.087,0.699,0.24,1.086,0.359c0.887,0.271,1.754,0.583,2.688,0.577c0.806-0.006,1.489-0.431,2.257-0.761
	c0.325-0.137,0.688-0.243,1.039-0.34l0.26,2.599C183.397,64.85,183.013,64.929,182.601,65z M186.458,69.154
	c0.014-0.002,0.021-0.008,0.029-0.01c1.97-0.568,4.097-0.916,5.854-1.973c0.587-0.357,0.659-1.602,1.251-1.909
	c1.311-0.679,2.604-1.089,3.522-2.054c1.491-1.564,3.288-3.177,4.135-4.744c0.912-1.686,0.8-3.992,1.304-6.152
	c0.391-1.677,0.375-3.316,0.293-5.208c-0.019-0.415,0.805-0.447,0.791-0.862c-0.093-2.368-1.103-4.216-1.64-5.949
	c-0.179-0.572,0.497-1.372,0.342-1.964c-0.405-1.506-1.172-2.942-1.926-4.14c-0.62-0.993-1.489-1.968-2.451-2.869l-1.138,0.957
	c0.99,0.839,2.023,1.677,2.572,2.548c0.625,1.001,0.217,2.742,0.599,4.161c0.149,0.578,0.317,1.184,0.5,1.77
	c0.494,1.601,0.22,3.366,0.306,5.592c0.018,0.455,1.086,0.411,1.107,0.865c0.082,1.713-0.073,3.383-0.415,4.854
	c-0.474,2.023-1.815,3.528-2.661,5.093c-0.803,1.481-1.145,3.868-2.506,5.296c-0.741,0.781-1.979,1.359-3.167,1.979
	c-0.617,0.32-1.667-0.063-2.283,0.312c-1.64,0.983-2.987,2.356-4.821,2.887c-0.021,0.006-0.039,0.007-0.056,0.013
	c-0.058-0.174-0.112-0.348-0.164-0.52l-0.501-1.15c0.876-0.246,1.673-0.533,2.408-0.875c0.445-0.209,0.902-0.398,1.349-0.587
	c1.212-0.506,2.353-0.983,3.271-1.749c0.923-0.768,1.615-1.818,2.348-2.933c0.266-0.397,0.527-0.798,0.803-1.185
	c0.303-0.422,0.627-0.832,0.943-1.237c0.79-1.009,1.538-1.96,1.956-3.073c0.356-0.943,0.317-2.045,0.282-3.141
	c-0.023-0.676-0.041-1.372,0.031-2.051c0.172-1.624,0.115-3.165-0.17-4.993c-0.104-0.684-0.13-1.372-0.16-2.087
	c-0.035-1.106-0.072-2.151-0.467-3.047c-0.447-1.018-1.236-1.881-2.066-2.797c-0.365-0.406-0.746-0.829-1.106-1.276
	c-0.146-0.188-0.313-0.354-0.473-0.525l6.512-5.493l-0.903,0.762c0.139,0.316,0.278,0.633,0.426,0.943
	c0.445,0.916,0.252,2.238,0.813,3.162c1.063,1.736,3.019,3.247,3.849,6.004c0.187,0.623,0.082,0.651,0.27,1.271
	c0.586,1.96,1.162,4.002,1.227,5.806c0.027,0.821-0.869,1.685-0.806,2.471c0.142,1.782,0.31,3.343-0.006,4.728
	c-0.369,1.631-1.353,3.231-2.286,4.929c-0.279,0.511,0.421,1.541,0.159,2.043c-0.244,0.462-1.308,0.5-1.578,1.045
	c-0.885,1.741-1.929,3.308-3.076,4.552c-0.748,0.803-1.366,2.353-2.774,3.028c-0.937,0.45-2.254,0.22-3.197,0.81
	c-1.881,1.172-3.582,1.871-5.361,2.453C187.215,71.729,186.854,70.468,186.458,69.154z M187.944,74.428
	c1.923-0.664,3.681-1.535,5.688-2.785c0.873-0.548,2.289-0.052,3.23-0.502c1.5-0.725,2.277-2.361,3.224-3.382
	c1.294-1.403,3.06-2.759,4.022-4.666c0.234-0.466,0.07-1.125,0.309-1.577c0.259-0.49,0.098-1.227,0.389-1.746
	c0.977-1.776,2.686-3.34,3.104-5.183c0.046-0.175,0.046-0.366,0.063-0.549c0.031,1.42-0.015,2.772-0.494,4.06
	c-0.476,1.284-1.123,2.411-1.41,3.705c-0.381,1.723-0.786,3.42-1.563,4.53c-1.031,1.469-2.963,2.333-4.645,3.619
	c-0.692,0.536-1.068,1.653-1.818,2.293c-0.666,0.562-1.624,0.795-2.271,1.381c-1.635,1.488-2.848,3.522-4.482,4.3
	c-0.689,0.326-1.512,0.396-2.393,0.391C188.619,77.093,188.302,75.798,187.944,74.428z M221.386,35.073
	c0.161,1.041,0.326,2.08,0.527,3.116l0.234,1.227c0.711,3.665,1.321,6.83,1.064,10.107c-0.109,1.398-0.134,2.782-0.158,4.122
	c-0.052,2.775-0.101,5.398-0.882,7.609c-0.659,1.866-2.196,3.616-3.823,5.471c-1.094,1.246-2.223,2.535-3.224,3.995
	c-2.386,3.488-4.705,6.124-7.513,8.546c-1.351,1.159-2.506,2.467-3.62,3.731c-1.63,1.846-3.167,3.589-4.972,4.471
	c-2.289,1.12-4.998,1.527-7.877,1.962c-0.148,0.023-0.305,0.047-0.457,0.072c-0.115-1.497-0.317-3.259-0.649-5.316v0.004
	c1.172-0.541,2.522-0.827,3.757-1.311c3.109-1.221,6.141-2.35,9.197-4.59c1.189-0.875,1.841-2.589,3.156-3.333
	c1.953-1.101,4.211-1.461,5.397-2.931c1.382-1.713,1.87-4.08,2.743-6.434c0.406-1.091,0.958-2.177,1.452-3.294
	c1.209-2.744,1.989-5.498,2.479-8.813c0.079-0.545-0.269-0.594-0.184-1.143c0.135-0.896,0.971-1.674,1.136-2.6
	c0.479-2.597,0.714-5.188,0.421-7.688c-0.396-3.352-1.229-6.583-2.667-10.146c-0.556-1.375-0.857-2.748-1.244-4.114
	c-0.623-2.241-2.217-3.891-3.373-5.415c-0.479-0.629-1.021-1.233-1.586-1.82l-0.705,0.593c0.582,0.583,1.119,1.173,1.574,1.775
	c0.979,1.286,1.199,3.419,1.785,5.513c0.396,1.409,1.132,2.754,1.718,4.208c1.392,3.447,1.726,6.509,2.101,9.688
	c0.266,2.268,0.063,4.492-0.399,7.002c-0.165,0.911-0.571,1.796-0.712,2.714c-0.085,0.555-0.152,0.545-0.234,1.096
	c-0.47,3.192,0.195,6.238-0.934,8.789c-0.507,1.158-1.143,2.199-1.557,3.312c-0.828,2.229-1.358,4.646-2.58,6.16
	c-0.993,1.239-3.572,1.168-5.485,2.243c-1.267,0.716-2.414,1.822-3.685,2.752c-2.944,2.158-5.324,4.054-8.303,5.226
	c-1.137,0.438-2.414,0.542-3.554,0.885c-0.171-0.929-0.366-1.913-0.586-2.95c0.909-0.127,1.772-0.321,2.563-0.696
	c1.853-0.876,3.727-2.121,5.449-3.685c0.635-0.58,1.19-1.227,1.842-1.777c0.713-0.604,1.563-1.014,2.285-1.567
	c1.775-1.362,3.229-3.001,4.395-4.666c0.959-1.364,1.123-3.231,1.554-5.153c0.263-1.196,0.392-2.511,0.83-3.696
	c0.992-2.669,1.199-5.261,1.508-8.488c0.122-1.257,0.479-2.533,0.747-3.778c0.415-1.877,1.215-3.5,0.952-5.107
	c-0.308-1.863-1.724-3.349-2.726-5.253c-0.463-0.875-0.381-2.083-0.806-3.024c-1.004-2.223-2.563-3.954-4.288-6.001l9.826-8.284
	c2.5,2.894,4.496,5.53,6,8.606C220.497,29.44,220.929,32.176,221.386,35.073z M174.063,79.602c-0.666-0.052-0.625-0.617-1.289-0.666
	c-2.555-0.183-5.077,0.31-7.225-0.463c-2.915-1.046-5.579-2.35-7.759-3.878c-2.052-1.439-4.553-3.569-6.442-5.847
	c-1.053-1.268-1.082-3.309-1.81-5.217c-0.354-0.936-1.863-1.428-2.299-2.391c-1.181-2.605-2.054-5.389-2.52-8.203
	c-0.234-1.416-0.342-2.745-0.748-4.03c-0.532-1.692-0.618-3.377-0.497-4.649c0.131-1.393,1.209-2.815,2.047-4.53
	c0.533-1.097,1.002-2.306,1.453-3.519c0.855-2.304,2.242-4.415,4.232-7.251c0.447-0.638,0.105-0.877,0.552-1.514
	c1.417-2.022,2.649-4.122,4.314-5.535c0.748-0.635,1.347-1.415,2.043-2.058c1.583-1.468,2.999-3.228,4.558-3.972
	c1.834-0.873,4.391-1.24,6.692-1.624c0.69-0.116,1.44,0.192,2.108,0.067c0.582-0.107,1.062-0.761,1.651-0.879
	c0.077-0.017,0.203,0.613,0.276,0.597c2.316-0.469,4.74-1.082,6.799-0.92c1.346,0.104,2.609,1.63,4.27,2.443
	c1.064,0.523,2.563,0.513,3.84,0.969c2.97,1.073,5.34,2.2,7.563,3.755c1.001,0.704,1.715,1.709,2.438,2.791l1.295-1.529
	c-0.821-1.001-1.686-1.93-2.741-2.67c-2.361-1.657-4.767-3.19-7.853-4.301c-1.189-0.43-2.377-0.701-3.467-1.236
	c-1.785-0.875-3.58-1.648-5.222-1.778c-2.275-0.177-4.732,0.842-7.164,1.336c-0.067,0.012,0.003,0.359-0.065,0.371
	c-0.586,0.117-1.384-0.891-1.958-0.784c-0.661,0.122-1.181,1.094-1.876,1.208c-2.396,0.4-5.244-0.24-7.279,0.725
	c-1.773,0.848-2.636,3.404-4.306,4.955c-0.679,0.63-1.651,0.998-2.38,1.619c-1.807,1.531-3.255,3.503-4.734,5.612
	c-0.444,0.635-0.853,0.351-1.299,0.986c-2.07,2.953-2.808,5.655-3.714,8.088c-0.422,1.142-1.393,2.063-1.921,3.145
	c-0.891,1.83-1.027,3.657-1.188,5.333c-0.15,1.587-0.604,3.394-0.021,5.246c0.386,1.229,1.119,2.385,1.335,3.693
	c0.488,2.95,1.505,5.647,2.745,8.375c0.415,0.918,0.246,2.074,0.606,3.023c0.762,2,2.072,3.576,3.289,5.041
	c2.01,2.42,4.693,4.37,6.83,5.867c2.291,1.609,4.862,3.14,7.906,4.234c2.35,0.844,4.793,1.717,7.458,1.908
	c0.659,0.049,0.752-1.184,1.412-1.13c3.462,0.269,6.12,0.155,8.713-0.327c0.688-0.13,1.425-0.047,2.17-0.084
	c0.027-0.525,0.05-1.063,0.058-1.613c-0.803,0.148-1.586,0.578-2.4,0.732C180.08,79.582,177.388,79.863,174.063,79.602z"/>
</svg>
